<?xml version="1.0" encoding="UTF-8" standalone="no"?>
<!DOCTYPE svg PUBLIC "-//W3C//DTD SVG 1.1//EN" "http://www.w3.org/Graphics/SVG/1.1/DTD/svg11.dtd">
<svg version="1.1" xmlns="http://www.w3.org/2000/svg" xmlns:xlink="http://www.w3.org/1999/xlink" preserveAspectRatio="xMidYMid meet" viewBox="2.943283625976278 247.12179209490284 504.95082099540457 70.38492381961106" width="500.95" height="66.38"><defs><path d="M337.61 288.14C348.37 249.96 371.29 249.88 392.16 249.25C394.85 249.15 397.62 248.78 400.47 248.12C395.93 250.38 392.7 255.23 390.77 262.68C385.29 280.75 374.01 290.58 356.91 292.17L331.75 297.41C334.86 294.06 336.82 290.97 337.61 288.14Z" id="hWDyNcsQ"></path><path d="M144.88 268.89C146.85 270.14 150.58 272.03 156.07 274.55C150.57 275.08 145.07 277.07 139.58 280.54C118.77 292.56 103.9 282.13 91.8 274.61C84.69 270.2 74.66 269.02 75.3 268C110.66 240.09 127.99 258.04 144.88 268.89Z" id="dX12RWQE3"></path><path d="M52.6 301.14C54.35 300.74 57.51 300.35 62.08 299.98C58.41 297.91 55.19 294.68 52.4 290.28C35.14 265.19 3.57 278.32 3.95 281.04C20.2 313.86 37.62 304.74 52.6 301.14Z" id="af8Jy3Ndy"></path><path d="M260.76 282.49C261.75 280.53 263.86 277.28 267.09 272.73C262.31 274.47 256.8 274.84 250.55 273.86C227.43 271.17 220.49 286.83 214.35 298.68C210.75 305.64 203.12 310.78 204.16 311.47C247.21 322.96 252.38 299.36 260.76 282.49Z" id="c1mfeTGCRI"></path><path d="M451.72 276.79C467 251.15 483.53 254.98 498.68 258.07C500.64 258.46 502.71 258.65 504.89 258.67C501.18 259.52 497.89 262.46 495.03 267.49C487.52 279.56 477.45 284.72 464.82 282.96L445.66 282.47C448.57 280.58 450.59 278.69 451.72 276.79Z" id="aqLc5EO3L"></path></defs><g><g><use xlink:href="#hWDyNcsQ" opacity="1" fill="#537d28" fill-opacity="1"></use></g><g><use xlink:href="#dX12RWQE3" opacity="1" fill="#b4c34e" fill-opacity="1"></use></g><g><use xlink:href="#af8Jy3Ndy" opacity="1" fill="#9bb466" fill-opacity="1"></use></g><g><use xlink:href="#c1mfeTGCRI" opacity="1" fill="#81a13f" fill-opacity="1"></use></g><g><use xlink:href="#aqLc5EO3L" opacity="1" fill="#81a13f" fill-opacity="1"></use></g></g></svg>