<?xml version="1.0" encoding="UTF-8" standalone="no"?>
<!DOCTYPE svg PUBLIC "-//W3C//DTD SVG 1.1//EN" "http://www.w3.org/Graphics/SVG/1.1/DTD/svg11.dtd">
<svg version="1.1" xmlns="http://www.w3.org/2000/svg" xmlns:xlink="http://www.w3.org/1999/xlink" preserveAspectRatio="xMidYMid meet" viewBox="380.1215719403998 274.17963425595747 137.3180222404411 84.37657439998725" width="133.32" height="80.38"><defs><path d="M393.49 330.41C391.31 328.6 387.19 325.74 381.12 321.82C387.17 322.21 393.2 320.9 399.21 317.89C422 307.77 438.47 322.55 451.86 333.46C459.73 339.87 470.78 343.06 470.08 344.12C431.42 369.98 412.18 346.05 393.49 330.41Z" id="a3DmbEf6Gu"></path><path d="M461.26 296.13C476.55 270.48 493.07 274.31 508.23 277.4C510.19 277.79 512.26 277.99 514.44 278C510.73 278.85 507.44 281.79 504.57 286.83C497.06 298.9 486.99 304.05 474.37 302.29L455.21 301.8C458.11 299.92 460.13 298.03 461.26 296.13Z" id="b1fsinobpN"></path></defs><g><g><use xlink:href="#a3DmbEf6Gu" opacity="1" fill="#537d28" fill-opacity="1"></use></g><g><use xlink:href="#b1fsinobpN" opacity="1" fill="#81a13f" fill-opacity="1"></use></g></g></svg>