<?xml version="1.0" encoding="UTF-8" standalone="no"?>
<!DOCTYPE svg PUBLIC "-//W3C//DTD SVG 1.1//EN" "http://www.w3.org/Graphics/SVG/1.1/DTD/svg11.dtd">
<svg version="1.1" xmlns="http://www.w3.org/2000/svg" xmlns:xlink="http://www.w3.org/1999/xlink" preserveAspectRatio="xMidYMid meet" viewBox="266.0852091438603 364.42381978011997 145.96718576808206 97.50547538363719" width="141.97" height="93.51"><defs><path d="M336.83 428.55C334.33 429.14 329.78 429.73 323.17 430.33C328.66 433.07 333.6 437.4 337.99 443.33C355.04 464.61 374.27 459.07 389.56 455.61C398.54 453.58 409.33 456.23 409.05 454.86C382.84 410.54 358.29 423.33 336.83 428.55Z" id="b24uQYLrW"></path><path d="M346.6 376.63C320.95 407.21 297.54 401.25 276.01 396.31C273.22 395.68 270.25 395.28 267.09 395.11C268.98 391.88 272.34 387.26 277.17 381.25C295.96 359.7 327.8 365.22 344.84 368.87C351.51 370.3 355.28 370.69 356.14 370.06C351.68 372.17 348.5 374.36 346.6 376.63Z" id="b2YkqQEzbq"></path></defs><g><g><use xlink:href="#b24uQYLrW" opacity="1" fill="#537d28" fill-opacity="1"></use></g><g><use xlink:href="#b2YkqQEzbq" opacity="1" fill="#81a13f" fill-opacity="1"></use></g></g></svg>