<?xml version="1.0" encoding="UTF-8" standalone="no"?>
<!DOCTYPE svg PUBLIC "-//W3C//DTD SVG 1.1//EN" "http://www.w3.org/Graphics/SVG/1.1/DTD/svg11.dtd">
<svg version="1.1" xmlns="http://www.w3.org/2000/svg" xmlns:xlink="http://www.w3.org/1999/xlink" preserveAspectRatio="xMidYMid meet" viewBox="253.63163113390158 107.050162303381 228.4192384929172 465.5498376966189" width="224.42" height="461.55"><defs><path d="M404.98 569.6C388.98 515.2 388 477.6 389.6 284C392.8 274.4 394.4 272 408 268C421.6 264 425.6 263.7 432.8 253.3C440 242.9 440.8 216.83 432.8 240.83C424.8 264.83 392 264.8 389.6 262.4C391.2 239.2 394.4 242.4 408 230.4C421.6 218.4 437.6 182.4 428 196.8C421.6 206.4 408.8 216.27 389.6 226.4C390.67 210.4 392.27 199.2 394.4 192.8C405.6 173.6 409.2 181.31 408 178.71C406.8 176.11 388 185.6 389.6 182.4C383.73 163.2 374.4 153.6 361.6 153.6C369.07 150.93 375.47 163.47 380.8 191.2C388.8 232.8 367.2 257.6 367.2 256C365.6 236.8 357 223.6 346.4 212.8C314.2 190.8 315.6 165.4 316 173.6C316.4 181.8 318.8 212.6 332.8 221.6C346.8 230.6 343.2 236 344 243.2C317.6 247.2 319.6 241.6 308.8 270.4C320.4 260 321.6 259.2 336 256C350.4 252.8 358.4 262.4 361.6 281.6C362.67 437.87 357.6 533.87 346.4 569.6" id="b2ipPDZBSE"></path><path d="M335.35 286.04C334.96 286.93 334.42 288.58 333.74 290.97C333.14 288.89 331.92 286.97 330.08 285.21C319.79 274.42 329.65 258.59 330.93 258.97C345.1 269.73 338.75 278.35 335.35 286.04Z" id="b7SRiLdww"></path><path d="M281.01 210.17C279.64 210.03 277.21 210.02 273.71 210.13C276.23 208.43 278.28 205.98 279.85 202.77C286.17 191.16 296.81 192.72 305.15 193.48C310.05 193.93 315.34 191.95 315.36 192.64C307.02 216.23 292.76 211.42 281.01 210.17Z" id="a2HY9eTGLJ"></path><path d="M355.59 209.74C366.2 195.89 360.25 186.61 355.04 178.02C354.37 176.91 353.78 175.69 353.27 174.38C352.03 175.5 350.36 177.37 348.25 180.01C340.87 190.07 347.76 202.95 351.77 209.77C353.34 212.45 354.04 213.99 353.86 214.42C354.23 212.33 354.8 210.77 355.59 209.74Z" id="bhaCHR2EZ"></path><path d="M296.09 137.44C315.7 148.45 313.38 162.46 311.57 175.28C311.34 176.94 311.26 178.67 311.32 180.49C310.57 177.46 308.27 174.92 304.43 172.87C295.19 167.43 291.02 159.4 291.92 148.77L291.67 132.79C293.17 135.08 294.64 136.63 296.09 137.44Z" id="g6QGHV9LI"></path><path d="M344.2 161.94C343.41 161.36 341.93 160.47 339.75 159.26C341.91 159.15 344.05 158.39 346.18 157C359.01 149.38 372.22 162.55 371.57 163.71C357.89 175.11 350.93 166.98 344.2 161.94Z" id="dyCTPPDP0"></path><path d="M311.49 246.6C312.47 247.11 314.3 247.81 316.97 248.72C314.48 249.38 312.1 250.8 309.81 252.98C301.06 260.66 293.6 256.36 287.59 253.35C284.06 251.59 279.4 251.7 279.63 251.13C294.02 234.22 303.08 242.22 311.49 246.6Z" id="a2bETMv9qb"></path><path d="M276.18 169.52C295.02 163.67 302.54 173.6 309.62 182.48C310.54 183.63 311.59 184.73 312.79 185.78C311.12 186.65 308.48 187.69 304.86 188.91C291.3 192.81 280.33 180.47 274.66 173.55C272.44 170.85 271.07 169.5 270.55 169.52C272.91 169.95 274.79 169.95 276.18 169.52Z" id="aUV17BehI"></path><path d="M368 113.3C385.79 127.05 381.45 140.57 377.79 152.99C377.32 154.6 376.99 156.31 376.79 158.11C376.48 155 374.58 152.15 371.08 149.57C362.73 142.84 359.78 134.28 362.23 123.9L364.31 108.05C365.45 110.53 366.69 112.29 368 113.3Z" id="a2mbLiPGAI"></path><path d="M382.74 152.88C382.55 154.24 382 156.61 381.08 159.99C383.31 157.93 386.18 156.51 389.67 155.72C409.92 150.26 409.6 124.03 407.78 123.56C382.9 126.17 384.26 141.15 382.74 152.88Z" id="a5XJvUHz93"></path><path d="M325.23 174.23C324.41 175.34 323.16 177.42 321.47 180.49C321.3 177.46 320.23 174.44 318.27 171.45C311.51 160.1 318.27 151.74 323.18 144.95C326.06 140.97 327.05 135.41 327.66 135.75C343.7 154.95 332.3 164.76 325.23 174.23Z" id="aGR7Z6ump"></path><path d="M340.61 131.28C358.05 130.79 362.09 141.04 366 150.3C366.51 151.49 367.15 152.68 367.91 153.87C366.29 154.21 363.79 154.47 360.41 154.64C347.93 154.73 341.53 141.6 338.35 134.36C337.1 131.52 336.25 130.05 335.81 129.94C337.71 130.87 339.32 131.32 340.61 131.28Z" id="b1hBtV87jr"></path><path d="M364.96 177C379.69 182.45 379.62 192.37 379.77 201.41C379.8 202.58 379.93 203.79 380.17 205.04C379.32 203.03 377.46 201.52 374.58 200.53C367.61 197.79 363.86 192.7 363.32 185.27L361.4 174.27C362.68 175.69 363.87 176.6 364.96 177Z" id="baQT46WR7"></path><path d="M344.1 169.8C344.17 168.82 344.47 167.12 344.99 164.68C343.48 166.24 341.51 167.37 339.06 168.06C324.91 172.78 326.22 191.39 327.53 191.65C345.09 188.77 343.51 178.19 344.1 169.8Z" id="c1epF7SZPZ"></path><path d="M277.43 284.56C276.89 285.82 275.73 287.96 273.95 290.97C276.65 289.58 279.79 288.96 283.36 289.13C296.57 289.19 300.34 279.12 303.68 271.44C305.65 266.93 309.94 263.25 309.33 262.9C284.65 258.84 281.99 273.65 277.43 284.56Z" id="b1NG4g5pBy"></path><path d="M297 217.36C315.84 215.14 321.22 225.85 326.35 235.5C327.02 236.75 327.82 237.97 328.77 239.18C327.04 239.71 324.35 240.23 320.72 240.75C307.21 242.05 299 228.45 294.85 220.91C293.22 217.96 292.16 216.45 291.67 216.38C293.83 217.2 295.6 217.52 297 217.36Z" id="c5hbEUrDYr"></path><path d="M303.43 310.11C323.49 298.22 320.72 284.29 318.5 271.53C318.23 269.88 318.1 268.15 318.12 266.33C317.41 269.4 315.09 272.04 311.16 274.26C301.71 280.12 297.59 288.35 298.81 298.95L298.96 314.97C300.45 312.61 301.94 310.99 303.43 310.11Z" id="b6buo5AKNC"></path><path d="M407.16 150.93C408.15 150.44 409.8 149.39 412.11 147.78C411.17 150.17 410.9 152.93 411.3 156.07C412.29 167.67 404.4 171.12 398.41 174.17C394.89 175.97 392.22 179.78 391.89 179.26C386.83 157.65 398.65 155.1 407.16 150.93Z" id="b4E09SIadd"></path><path d="M412.21 169.77C411.64 171.02 410.43 173.13 408.57 176.09C411.3 174.76 414.45 174.23 418.02 174.49C431.23 174.88 435.25 164.92 438.79 157.32C440.87 152.86 445.25 149.3 444.66 148.93C420.08 144.24 417.05 158.98 412.21 169.77Z" id="aaBKq5kg"></path><path d="M422.38 199.79C409.3 205.45 403.13 198.9 397.36 193.06C396.61 192.31 395.76 191.6 394.82 190.93C395.95 190.18 397.77 189.23 400.28 188.07C409.72 184.22 418.55 192.24 423.17 196.77C424.97 198.55 426.06 199.41 426.43 199.35C424.7 199.23 423.35 199.37 422.38 199.79Z" id="h1Tli4jeuO"></path><path d="M259.42 231.92C273.97 241.54 282.82 234.96 291.02 229.16C292.09 228.42 293.26 227.74 294.53 227.14C293.33 225.99 291.34 224.45 288.57 222.53C278.01 215.87 265.65 223.64 259.12 228.11C256.56 229.86 255.07 230.67 254.63 230.52C256.74 230.74 258.34 231.21 259.42 231.92Z" id="c3HrmnFEs3"></path><path d="M467.64 184.94C450.2 177.46 442.01 186.21 434.35 194.01C433.36 195.01 432.24 195.96 430.99 196.85C432.5 197.85 434.92 199.11 438.27 200.63C450.85 205.71 462.58 195 468.7 188.95C471.09 186.58 472.54 185.43 473.03 185.51C470.73 185.68 468.93 185.49 467.64 184.94Z" id="a6uFr33dpd"></path><path d="M427.8 216.27C426.87 215.97 425.18 215.6 422.72 215.17C424.73 214.36 426.52 212.95 428.09 210.95C437.78 199.61 454.53 207.83 454.28 209.14C445 224.33 435.79 218.88 427.8 216.27Z" id="a6wOfaUOa"></path><path d="M445.79 231.07C444.42 231.01 441.99 231.14 438.5 231.46C440.92 229.62 442.82 227.05 444.21 223.75C449.83 211.79 460.54 212.72 468.92 212.99C473.83 213.15 479 210.86 479.05 211.56C472.12 235.6 457.6 231.63 445.79 231.07Z" id="fKOkMuZMA"></path><path d="M443.49 238.05C460.32 233.45 466.67 242.46 472.65 250.54C473.43 251.57 474.33 252.58 475.36 253.55C473.86 254.27 471.49 255.11 468.25 256.07C456.14 259.11 446.82 247.86 442.02 241.58C440.13 239.11 438.96 237.88 438.5 237.89C440.58 238.34 442.24 238.39 443.49 238.05Z" id="d1aaIOdbrN"></path><path d="M428.86 235.08C419.55 231.64 419.6 225.37 419.5 219.65C419.48 218.91 419.4 218.15 419.25 217.36C419.79 218.63 420.96 219.58 422.78 220.21C427.18 221.94 429.56 225.16 429.9 229.85L431.11 236.8C430.3 235.91 429.55 235.33 428.86 235.08Z" id="a3jNEtuLPh"></path><path d="M443.13 250.51C457.11 260.69 454.13 270.16 451.64 278.86C451.32 279.98 451.11 281.18 451 282.46C450.69 280.25 449.16 278.18 446.41 276.26C439.84 271.28 437.36 265.15 438.97 257.86L440.16 246.69C441.1 248.48 442.09 249.75 443.13 250.51Z" id="g9a56wrvL"></path><path d="M405.76 256.99C402.7 244.94 409.2 240.52 415.04 236.36C415.79 235.82 416.51 235.19 417.22 234.47C417.71 235.55 418.28 237.25 418.92 239.57C420.93 248.24 412.8 254.74 408.26 258.09C406.48 259.4 405.59 260.21 405.58 260.54C405.93 259.07 405.99 257.89 405.76 256.99Z" id="alLbqajkS"></path><path d="M429.1 287.77C429.07 288.66 429.18 290.24 429.41 292.5C428.2 290.94 426.51 289.73 424.35 288.86C416.53 285.31 417.04 278.34 417.14 272.9C417.2 269.7 415.67 266.37 416.12 266.33C431.8 270.62 429.36 280.09 429.1 287.77Z" id="e3tAOxwxdH"></path></defs><g><g><use xlink:href="#b2ipPDZBSE" opacity="1" fill="#4a2819" fill-opacity="1"></use></g><g><use xlink:href="#b7SRiLdww" opacity="1" fill="#537d28" fill-opacity="1"></use></g><g><use xlink:href="#a2HY9eTGLJ" opacity="1" fill="#537d28" fill-opacity="1"></use></g><g><use xlink:href="#bhaCHR2EZ" opacity="1" fill="#537d28" fill-opacity="1"></use></g><g><use xlink:href="#g6QGHV9LI" opacity="1" fill="#537d28" fill-opacity="1"></use></g><g><use xlink:href="#dyCTPPDP0" opacity="1" fill="#b4c34e" fill-opacity="1"></use></g><g><use xlink:href="#a2bETMv9qb" opacity="1" fill="#b4c34e" fill-opacity="1"></use></g><g><use xlink:href="#aUV17BehI" opacity="1" fill="#b4c34e" fill-opacity="1"></use></g><g><use xlink:href="#a2mbLiPGAI" opacity="1" fill="#b4c34e" fill-opacity="1"></use></g><g><use xlink:href="#a5XJvUHz93" opacity="1" fill="#81a13f" fill-opacity="1"></use></g><g><use xlink:href="#aGR7Z6ump" opacity="1" fill="#81a13f" fill-opacity="1"></use></g><g><use xlink:href="#b1hBtV87jr" opacity="1" fill="#81a13f" fill-opacity="1"></use></g><g><use xlink:href="#baQT46WR7" opacity="1" fill="#81a13f" fill-opacity="1"></use></g><g><use xlink:href="#c1epF7SZPZ" opacity="1" fill="#9bb466" fill-opacity="1"></use></g><g><use xlink:href="#b1NG4g5pBy" opacity="1" fill="#537d28" fill-opacity="1"></use></g><g><use xlink:href="#c5hbEUrDYr" opacity="1" fill="#9bb466" fill-opacity="1"></use></g><g><use xlink:href="#b6buo5AKNC" opacity="1" fill="#9bb466" fill-opacity="1"></use></g><g><use xlink:href="#b4E09SIadd" opacity="1" fill="#b4c34e" fill-opacity="1"></use></g><g><use xlink:href="#aaBKq5kg" opacity="1" fill="#537d28" fill-opacity="1"></use></g><g><use xlink:href="#h1Tli4jeuO" opacity="1" fill="#81a13f" fill-opacity="1"></use></g><g><use xlink:href="#c3HrmnFEs3" opacity="1" fill="#81a13f" fill-opacity="1"></use></g><g><use xlink:href="#a6uFr33dpd" opacity="1" fill="#9bb466" fill-opacity="1"></use></g><g><use xlink:href="#a6wOfaUOa" opacity="1" fill="#b4c34e" fill-opacity="1"></use></g><g><use xlink:href="#fKOkMuZMA" opacity="1" fill="#537d28" fill-opacity="1"></use></g><g><use xlink:href="#d1aaIOdbrN" opacity="1" fill="#81a13f" fill-opacity="1"></use></g><g><use xlink:href="#a3jNEtuLPh" opacity="1" fill="#81a13f" fill-opacity="1"></use></g><g><use xlink:href="#g9a56wrvL" opacity="1" fill="#b4c34e" fill-opacity="1"></use></g><g><use xlink:href="#alLbqajkS" opacity="1" fill="#81a13f" fill-opacity="1"></use></g><g><use xlink:href="#e3tAOxwxdH" opacity="1" fill="#81a13f" fill-opacity="1"></use></g></g></svg>