<?xml version="1.0" encoding="UTF-8" standalone="no"?>
<!DOCTYPE svg PUBLIC "-//W3C//DTD SVG 1.1//EN" "http://www.w3.org/Graphics/SVG/1.1/DTD/svg11.dtd">
<svg version="1.1" xmlns="http://www.w3.org/2000/svg" xmlns:xlink="http://www.w3.org/1999/xlink" preserveAspectRatio="xMidYMid meet" viewBox="-1 176.45016230338098 644 466.549837696619" width="640" height="462.55"><defs><path d="M356.17 639C338.15 584.6 337.05 547 338.85 353.4C342.45 343.8 344.26 341.4 359.58 337.4C374.9 333.4 379.4 333.1 387.51 322.7C395.62 312.3 396.53 286.23 387.51 310.23C378.5 334.23 341.55 334.2 338.85 331.8C340.65 308.6 344.26 311.8 359.58 299.8C374.9 287.8 392.92 251.8 382.11 266.2C374.9 275.8 360.48 285.67 338.85 295.8C340.05 279.8 341.85 268.6 344.26 262.2C356.87 243 360.93 250.71 359.58 248.11C358.22 245.51 337.05 255 338.85 251.8C332.24 232.6 321.73 223 307.31 223C315.72 220.33 322.93 232.87 328.94 260.6C337.95 302.2 313.62 327 313.62 325.4C311.81 306.2 302.13 293 290.18 282.2C253.91 260.2 255.49 234.8 255.94 243C256.39 251.2 259.09 282 274.86 291C290.64 300 286.58 305.4 287.48 312.6C257.74 316.6 259.99 311 247.83 339.8C260.9 329.4 262.25 328.6 278.47 325.4C294.69 322.2 303.7 331.8 307.31 351C308.51 507.27 302.8 603.27 290.18 639" id="bi3OtdTOr"></path><path d="M277.73 355.44C277.29 356.33 276.69 357.98 275.92 360.37C275.24 358.29 273.87 356.37 271.8 354.61C260.2 343.82 271.32 327.99 272.76 328.37C288.72 339.13 281.57 347.75 277.73 355.44Z" id="i3eic8O3Hr"></path><path d="M216.52 279.57C214.98 279.43 212.24 279.42 208.3 279.53C211.14 277.83 213.45 275.38 215.22 272.17C222.34 260.56 234.32 262.12 243.72 262.88C249.24 263.33 255.2 261.35 255.21 262.04C245.82 285.63 229.76 280.82 216.52 279.57Z" id="dPVBfpDmJ"></path><path d="M300.54 279.14C312.49 265.29 305.79 256.01 299.91 247.42C299.16 246.31 298.5 245.09 297.92 243.78C296.53 244.9 294.65 246.77 292.27 249.41C283.95 259.47 291.72 272.35 296.23 279.17C298 281.85 298.79 283.39 298.59 283.82C299 281.73 299.65 280.17 300.54 279.14Z" id="b27tl1tzqv"></path><path d="M233.51 206.84C255.6 217.85 252.98 231.86 250.94 244.68C250.69 246.34 250.6 248.07 250.67 249.89C249.82 246.86 247.23 244.32 242.9 242.27C232.5 236.83 227.8 228.8 228.82 218.17L228.53 202.19C230.22 204.48 231.88 206.03 233.51 206.84Z" id="bontcZULX"></path><path d="M287.7 231.34C286.82 230.76 285.15 229.87 282.69 228.66C285.12 228.55 287.54 227.79 289.94 226.4C304.39 218.78 319.28 231.95 318.53 233.11C303.13 244.51 295.29 236.38 287.7 231.34Z" id="b1sAvGshhK"></path><path d="M250.86 316C251.96 316.51 254.02 317.21 257.03 318.12C254.23 318.78 251.54 320.2 248.97 322.38C239.11 330.06 230.71 325.76 223.93 322.75C219.96 320.99 214.71 321.1 214.97 320.53C231.18 303.62 241.39 311.62 250.86 316Z" id="bkgZ6DJky"></path><path d="M211.09 238.92C232.3 233.07 240.78 243 248.75 251.88C249.78 253.03 250.98 254.13 252.32 255.18C250.44 256.05 247.47 257.09 243.39 258.31C228.12 262.21 215.76 249.87 209.37 242.95C206.87 240.25 205.33 238.9 204.74 238.92C207.4 239.35 209.52 239.35 211.09 238.92Z" id="a2xaZ09Uz"></path><path d="M314.52 182.7C334.56 196.45 329.67 209.97 325.54 222.39C325.02 224 324.65 225.71 324.42 227.51C324.07 224.4 321.93 221.55 317.98 218.97C308.58 212.24 305.26 203.68 308.01 193.3L310.36 177.45C311.65 179.93 313.04 181.69 314.52 182.7Z" id="gHSRzuUvy"></path><path d="M331.12 222.28C330.91 223.64 330.29 226.01 329.25 229.39C331.77 227.33 334.99 225.91 338.92 225.12C361.74 219.66 361.38 193.43 359.33 192.96C331.3 195.57 332.83 210.55 331.12 222.28Z" id="d5pC4o9xda"></path><path d="M266.33 243.63C265.41 244.74 264 246.82 262.1 249.89C261.91 246.86 260.71 243.84 258.5 240.85C250.88 229.5 258.49 221.14 264.03 214.35C267.28 210.37 268.39 204.81 269.07 205.15C287.15 224.35 274.3 234.16 266.33 243.63Z" id="cuetuLp2"></path><path d="M283.66 200.68C303.31 200.19 307.86 210.44 312.26 219.7C312.84 220.89 313.56 222.08 314.42 223.27C312.59 223.61 309.77 223.87 305.97 224.04C291.91 224.13 284.7 211 281.11 203.76C279.71 200.92 278.75 199.45 278.25 199.34C280.4 200.27 282.2 200.72 283.66 200.68Z" id="ctBh9hiku"></path><path d="M311.09 246.4C327.68 251.85 327.61 261.77 327.78 270.81C327.81 271.98 327.96 273.19 328.23 274.44C327.27 272.43 325.17 270.92 321.93 269.93C314.08 267.19 309.85 262.1 309.24 254.67L307.08 243.67C308.52 245.09 309.86 246 311.09 246.4Z" id="c2GYuAAVPD"></path><path d="M287.59 239.2C287.68 238.22 288.01 236.52 288.59 234.08C286.9 235.64 284.68 236.77 281.92 237.46C265.98 242.18 267.45 260.79 268.93 261.05C288.71 258.17 286.93 247.59 287.59 239.2Z" id="jt32MKDQd"></path><path d="M212.49 353.96C211.88 355.22 210.58 357.36 208.57 360.37C211.61 358.98 215.14 358.36 219.17 358.53C234.05 358.59 238.29 348.52 242.07 340.84C244.28 336.33 249.11 332.65 248.43 332.3C220.62 328.24 217.63 343.05 212.49 353.96Z" id="b4c74lVZLa"></path><path d="M234.54 286.76C255.76 284.54 261.82 295.25 267.59 304.9C268.35 306.15 269.26 307.37 270.32 308.58C268.37 309.11 265.35 309.63 261.25 310.15C246.03 311.45 236.79 297.85 232.11 290.31C230.28 287.36 229.09 285.85 228.53 285.78C230.96 286.6 232.96 286.92 234.54 286.76Z" id="a2d4PgbxJO"></path><path d="M241.78 379.51C264.38 367.62 261.25 353.69 258.76 340.93C258.45 339.28 258.3 337.55 258.32 335.73C257.53 338.8 254.92 341.44 250.48 343.66C239.84 349.52 235.21 357.75 236.57 368.35L236.74 384.37C238.43 382.01 240.1 380.39 241.78 379.51Z" id="g27QZ3gDg"></path><path d="M358.63 220.33C359.74 219.84 361.6 218.79 364.21 217.18C363.15 219.57 362.85 222.33 363.29 225.47C364.41 237.07 355.52 240.52 348.77 243.57C344.81 245.37 341.8 249.18 341.43 248.66C335.73 227.05 349.04 224.5 358.63 220.33Z" id="e1a5BkvOVB"></path><path d="M364.32 239.17C363.68 240.42 362.31 242.53 360.22 245.49C363.3 244.16 366.85 243.63 370.87 243.89C385.75 244.28 390.27 234.32 394.26 226.72C396.61 222.26 401.54 218.7 400.87 218.33C373.19 213.64 369.77 228.38 364.32 239.17Z" id="fjt5QoDLb"></path><path d="M375.78 269.19C361.04 274.85 354.09 268.3 347.59 262.46C346.74 261.71 345.79 261 344.73 260.33C346 259.58 348.05 258.63 350.88 257.47C361.51 253.62 371.47 261.64 376.66 266.17C378.69 267.95 379.92 268.81 380.34 268.75C378.39 268.63 376.87 268.77 375.78 269.19Z" id="aUEgOIYoA"></path><path d="M192.2 301.32C208.59 310.94 218.56 304.36 227.8 298.56C229 297.82 230.32 297.14 231.76 296.54C230.4 295.39 228.16 293.85 225.04 291.93C213.15 285.27 199.22 293.04 191.86 297.51C188.99 299.26 187.3 300.07 186.81 299.92C189.19 300.14 190.98 300.61 192.2 301.32Z" id="d4yaPubJCT"></path><path d="M426.76 254.34C407.12 246.86 397.89 255.61 389.26 263.41C388.14 264.41 386.88 265.36 385.47 266.25C387.17 267.25 389.9 268.51 393.67 270.03C407.85 275.11 421.06 264.4 427.95 258.35C430.65 255.98 432.28 254.83 432.84 254.91C430.24 255.08 428.22 254.89 426.76 254.34Z" id="c4Mj2ayZra"></path><path d="M381.88 285.67C380.83 285.37 378.92 285 376.16 284.57C378.42 283.76 380.44 282.35 382.2 280.35C393.13 269.01 411.99 277.23 411.71 278.54C401.26 293.73 390.88 288.28 381.88 285.67Z" id="evIoKVFM"></path><path d="M402.15 300.47C400.6 300.41 397.87 300.54 393.94 300.86C396.67 299.02 398.81 296.45 400.36 293.15C406.7 281.19 418.76 282.12 428.2 282.39C433.74 282.55 439.55 280.26 439.61 280.96C431.8 305 415.45 301.03 402.15 300.47Z" id="b9fymBBak"></path><path d="M399.55 307.45C418.51 302.85 425.67 311.86 432.41 319.94C433.28 320.97 434.3 321.98 435.45 322.95C433.76 323.67 431.09 324.51 427.45 325.47C413.81 328.51 403.31 317.26 397.9 310.98C395.78 308.51 394.46 307.28 393.94 307.29C396.28 307.74 398.15 307.79 399.55 307.45Z" id="f1XYmHEmC"></path><path d="M383.08 304.48C372.59 301.04 372.64 294.77 372.53 289.05C372.51 288.31 372.42 287.55 372.25 286.76C372.85 288.03 374.18 288.98 376.23 289.61C381.19 291.34 383.86 294.56 384.25 299.25L385.61 306.2C384.7 305.31 383.86 304.73 383.08 304.48Z" id="boKFagRyM"></path><path d="M399.15 319.91C414.9 330.09 411.54 339.56 408.73 348.26C408.38 349.38 408.14 350.58 408.02 351.86C407.66 349.65 405.94 347.58 402.84 345.66C395.44 340.68 392.65 334.55 394.46 327.26L395.81 316.09C396.87 317.88 397.98 319.15 399.15 319.91Z" id="fnlIMre6V"></path><path d="M357.06 326.39C353.61 314.34 360.93 309.92 367.5 305.76C368.35 305.22 369.17 304.59 369.96 303.87C370.52 304.95 371.16 306.65 371.88 308.97C374.15 317.64 364.98 324.14 359.87 327.49C357.86 328.8 356.86 329.61 356.85 329.94C357.24 328.47 357.31 327.29 357.06 326.39Z" id="a1UL4C2Pus"></path><path d="M383.34 357.17C383.31 358.06 383.43 359.64 383.7 361.9C382.33 360.34 380.43 359.13 378 358.26C369.19 354.71 369.76 347.74 369.87 342.3C369.94 339.1 368.21 335.77 368.72 335.73C386.39 340.02 383.63 349.49 383.34 357.17Z" id="arpHXQAEw"></path><path d="M47.53 625.35L48.09 626.7L48.42 627.75L48.87 628.07L49.88 629.07L50.93 630.4L52.01 632.04L53.13 633.99L54.06 635.92L54.59 637.44L54.7 638.58L54.41 639.33L53.7 639.68L52.71 639.43L51.75 638.76L50.82 637.67L49.92 636.18L49.94 636.48L49.85 637.92L49.56 638.98L49.07 639.68L48.38 640L47.61 639.72L46.95 639.06L46.39 638.01L45.95 636.59L45.6 634.79L45.37 632.6L45.24 630.37L45.23 628.43L45.32 626.77L45.54 625.4L45.86 624.32L46.3 623.53L46.94 624.3L47.53 625.35ZM28.58 625.03L29.21 626.08L29.84 627.34L30.47 628.82L31.1 630.51L31.73 632.42L31.84 632.84L32.29 632.11L33.46 630.48L34.57 629.16L35.63 628.17L36.63 627.49L36.88 628.25L36.86 629.31L36.56 630.68L36 632.36L35.16 634.33L34.18 636.25L33.2 637.75L32.76 638.23L32.76 638.34L32.56 639.14L32.18 639.68L31.61 639.95L30.8 639.7L30.72 639.62L30.21 639.75L29.52 639.39L29.27 638.64L29.36 638.03L29.36 638.03L28.72 636.62L28.13 634.83L27.6 632.66L27.17 630.44L26.9 628.5L26.78 626.84L26.8 625.47L26.98 624.38L27.32 623.58L27.95 624.2L28.58 625.03ZM2.84 625.3L3.27 626.66L3.63 628.3L3.93 630.24L4.15 632.47L4.26 634.66L4.21 636.47L3.99 637.9L3.6 638.96L3.05 639.65L2.32 639.95L1.78 623.46L2.34 624.23L2.84 625.3ZM74.09 625.31L74.69 626.65L75.07 627.74L75.17 627.41L76.2 628.09L77.29 629.08L78.45 630.39L79.68 632.02L80.97 633.96L82.08 635.87L82.74 637.39L82.95 638.53L82.72 639.28L82.05 639.64L81.04 639.4L80.02 638.74L78.99 637.66L77.95 636.16L76.9 634.25L76.46 633.3L76.69 634.61L76.86 636.42L76.82 637.86L76.57 638.93L76.1 639.63L75.42 639.95L74.64 639.68L73.96 639.02L73.37 637.98L72.88 636.56L72.47 634.76L72.16 632.58L71.96 630.35L71.88 628.41L71.93 626.75L72.1 625.38L72.39 624.3L72.8 623.5L73.46 624.26L74.09 625.31ZM1.58 639.66L0.98 638.98L0.53 637.93L0.21 636.5L0.03 634.69L0 632.5L0.08 630.27L0.25 628.33L0.5 626.68L0.84 625.31L1.26 624.24L1.78 623.46L2.32 639.95L1.58 639.66ZM54.28 625.13L55.05 626.16L55.84 627.4L56.67 628.86L57.51 630.53L58.39 632.42L58.43 632.52L58.62 632.09L59.5 630.44L60.38 629.1L61.27 628.08L62.15 627.38L62.53 628.14L62.69 629.2L62.63 630.57L62.36 632.26L61.86 634.25L61.22 636.18L60.5 637.7L60.18 638.14L60.2 638.29L60.11 639.1L59.79 639.65L59.26 639.94L58.54 639.76L58.33 639.63L57.86 639.76L57.12 639.42L56.73 638.68L56.72 637.98L56.41 637.53L55.71 636.23L55 634.64L54.31 632.77L53.68 630.86L53.19 629.16L52.84 627.66L52.63 626.37L52.56 625.28L52.63 624.4L52.83 623.72L53.54 624.32L54.28 625.13ZM68.85 624.27L68.96 625.15L68.94 626.24L68.78 627.53L68.53 628.88L68.66 629.03L69.55 630.36L70.45 632.02L71.34 633.99L72.05 635.92L72.4 637.46L72.38 638.6L72 639.34L71.26 639.68L70.3 639.41L69.42 638.73L68.61 637.63L67.87 636.11L67.22 634.17L67.15 633.89L66.94 634.53L66.31 636.13L65.66 637.44L65 638.47L64.32 639.22L63.63 639.68L62.92 639.87L62.38 639.59L62.04 639.04L61.91 638.23L61.98 637.16L62.26 635.82L62.75 634.21L63.45 632.34L64.24 630.45L65.02 628.77L65.77 627.3L66.51 626.05L67.23 625.02L67.93 624.19L68.62 623.59L68.62 623.59L68.85 624.27ZM41.89 625.14L41.86 626.23L41.7 627.52L41.41 629.03L41.05 630.51L41.06 630.46L41.71 629.1L42.41 628.07L43.16 627.35L43.68 628.09L44.03 629.15L44.22 630.52L44.24 632.21L44.1 634.2L43.8 636.15L43.35 637.68L42.75 638.8L42 639.51L41.09 639.79L40.28 639.47L39.77 638.74L39.54 637.6L39.6 636.06L39.95 634.12L39.98 634.01L39.81 634.52L39.17 636.11L38.52 637.43L37.85 638.46L37.17 639.2L36.47 639.67L35.76 639.85L41.56 623.58L41.79 624.26L41.89 625.14ZM35.22 639.57L34.88 639.02L34.76 638.21L34.84 637.14L35.13 635.8L35.63 634.19L36.34 632.33L37.14 630.43L37.93 628.75L38.69 627.29L39.44 626.04L40.17 625L40.87 624.19L41.56 623.58L35.76 639.85L35.22 639.57ZM22.91 624.29L23.09 625.37L23.11 626.75L22.97 628.4L22.86 629.15L23.84 630.41L24.91 632.05L26.02 634.01L26.93 635.93L27.45 637.46L27.55 638.6L27.25 639.34L26.54 639.69L25.56 639.44L24.6 638.77L23.67 637.68L22.78 636.17L21.92 634.24L21.87 634.1L21.71 634.74L21.11 636.52L20.46 637.93L19.76 638.95L19.01 639.59L18.21 639.85L17.64 639.58L17.26 639.04L17.06 638.23L17.05 637.16L17.22 635.81L17.58 634.2L18.13 632.32L18.77 630.41L19.4 628.72L20.04 627.24L20.68 625.98L21.31 624.93L21.95 624.1L22.58 623.48L22.58 623.48L22.91 624.29ZM14.49 624.3L14.53 625.18L14.42 626.27L14.18 627.56L13.79 629.06L13.25 630.76L12.57 632.66L11.82 634.53L11.07 636.11L10.33 637.41L9.59 638.43L8.86 639.17L8.14 639.62L7.41 639.79L6.89 639.51L6.84 639.41L6.77 639.38L6.16 638.66L5.8 637.53L5.67 635.99L5.78 634.04L6.06 632.04L6.44 630.37L6.92 629L7.49 627.96L8.16 627.23L8.76 627.96L9.24 629.02L9.55 630.18L10.32 628.73L11.18 627.28L12.01 626.04L12.81 625.02L13.57 624.21L14.3 623.62L14.3 623.62L14.49 624.3ZM17.45 629.13L17.58 630.5L17.53 632.19L17.3 634.19L16.92 636.13L16.4 637.66L15.75 638.77L14.97 639.47L14.05 639.76L13.25 639.43L12.77 638.7L12.59 637.56L12.72 636.02L13.16 634.08L13.77 632.09L14.43 630.42L15.13 629.07L15.88 628.04L16.67 627.33L16.67 627.33L17.15 628.07L17.45 629.13Z" id="a1pPueRqCT"></path><path d="M127.47 625.35L128.03 626.7L128.36 627.75L128.81 628.07L129.82 629.07L130.86 630.4L131.95 632.04L133.07 633.99L134 635.92L134.52 637.44L134.64 638.58L134.35 639.33L133.64 639.68L132.65 639.43L131.69 638.76L130.76 637.67L129.86 636.18L129.88 636.48L129.79 637.92L129.5 638.98L129.01 639.68L128.32 640L127.55 639.72L126.89 639.06L126.33 638.01L125.88 636.59L125.54 634.79L125.3 632.6L125.18 630.37L125.16 628.43L125.26 626.77L125.48 625.4L125.8 624.32L126.24 623.53L126.24 623.53L126.88 624.29L127.47 625.35ZM108.52 625.03L109.15 626.08L109.78 627.34L110.41 628.82L111.04 630.51L111.66 632.42L111.78 632.84L112.23 632.11L113.4 630.48L114.51 629.16L115.57 628.17L116.57 627.49L116.82 628.25L116.8 629.31L116.5 630.68L115.94 632.36L115.1 634.33L114.12 636.25L113.14 637.75L112.7 638.23L112.7 638.34L112.5 639.14L112.11 639.68L111.54 639.95L110.74 639.69L110.65 639.62L110.15 639.75L109.46 639.39L109.21 638.64L109.3 638.03L109.3 638.03L108.66 636.62L108.07 634.83L107.54 632.66L107.11 630.44L106.84 628.5L106.71 626.84L106.74 625.47L106.92 624.38L107.25 623.58L107.89 624.2L108.52 625.03ZM82.78 625.3L83.21 626.66L83.57 628.3L83.86 630.24L84.09 632.47L84.2 634.66L84.15 636.47L83.93 637.9L83.54 638.96L82.98 639.65L82.26 639.95L81.52 639.66L80.92 638.98L80.46 637.93L80.15 636.5L79.97 634.69L79.94 632.5L80.02 630.27L80.18 628.33L80.44 626.68L80.78 625.31L81.2 624.24L81.72 623.46L81.72 623.46L82.28 624.23L82.78 625.3ZM154.03 625.31L154.63 626.65L155.01 627.74L155.1 627.41L155.11 627.41L156.13 628.09L157.23 629.08L158.39 630.39L159.62 632.02L160.91 633.96L162.01 635.87L162.67 637.39L162.89 638.53L162.66 639.28L161.99 639.64L160.98 639.4L159.96 638.74L158.93 637.66L157.89 636.16L156.84 634.25L156.4 633.3L156.63 634.61L156.8 636.42L156.76 637.86L156.51 638.93L156.04 639.63L155.36 639.95L154.58 639.68L153.9 639.02L153.31 637.98L152.81 636.56L152.41 634.76L152.1 632.58L151.9 630.35L151.82 628.41L151.87 626.75L152.04 625.38L152.33 624.3L152.74 623.5L152.86 624.26L152.74 623.5L153.4 624.26L154.03 625.31ZM134.22 625.13L134.99 626.16L135.78 627.4L136.6 628.86L137.45 630.53L138.33 632.42L138.37 632.52L138.56 632.09L139.44 630.44L140.32 629.1L141.2 628.08L142.09 627.38L142.47 628.14L142.63 629.2L142.57 630.57L142.3 632.26L141.8 634.25L141.16 636.18L140.44 637.7L140.12 638.14L140.14 638.29L140.04 639.1L139.73 639.65L139.2 639.94L138.48 639.76L138.27 639.63L137.8 639.76L137.05 639.42L136.67 638.68L136.65 637.98L136.35 637.53L135.64 636.23L134.94 634.64L134.25 632.77L133.62 630.86L133.13 629.16L132.78 627.66L132.57 626.37L132.5 625.28L132.57 624.4L132.77 623.72L133.48 624.32L134.22 625.13ZM148.9 625.15L148.87 626.24L148.72 627.53L148.47 628.88L148.6 629.03L149.49 630.36L150.38 632.02L151.28 633.99L151.99 635.92L152.34 637.46L152.32 638.6L151.94 639.34L151.2 639.68L150.24 639.41L149.35 638.73L148.55 637.63L147.81 636.11L147.16 634.17L147.08 633.89L146.87 634.53L146.25 636.13L145.6 637.44L144.94 638.47L144.26 639.22L143.57 639.68L142.86 639.87L142.31 639.59L141.98 639.04L141.84 638.23L141.92 637.16L142.2 635.82L142.69 634.21L143.39 632.34L144.18 630.45L144.95 628.77L145.71 627.3L146.45 626.05L147.17 625.01L147.87 624.19L148.55 623.59L148.79 624.26L148.9 625.15ZM103.02 625.37L103.05 626.75L102.91 628.4L102.8 629.15L103.78 630.4L104.85 632.05L105.95 634.01L106.87 635.93L107.38 637.46L107.49 638.6L107.19 639.34L106.48 639.69L105.49 639.44L104.54 638.77L103.61 637.68L102.72 636.17L101.86 634.24L101.8 634.1L101.64 634.73L101.05 636.52L100.4 637.93L99.7 638.95L98.95 639.59L98.14 639.85L97.58 639.58L97.19 639.04L97 638.23L96.99 637.16L97.16 635.81L97.52 634.2L98.07 632.32L98.7 630.41L99.34 628.72L99.98 627.24L100.62 625.98L101.25 624.93L101.89 624.1L102.52 623.48L102.85 624.29L103.02 625.37ZM121.83 625.14L121.8 626.23L121.64 627.52L121.35 629.02L120.98 630.51L121 630.46L121.64 629.1L122.34 628.07L123.1 627.35L123.62 628.09L123.97 629.15L124.15 630.52L124.18 632.21L124.04 634.2L123.74 636.15L123.29 637.68L122.69 638.8L121.93 639.5L121.03 639.79L120.22 639.47L119.7 638.74L119.48 637.6L119.54 636.06L119.89 634.12L119.92 634.01L119.75 634.52L119.11 636.11L118.46 637.43L117.79 638.46L117.11 639.2L116.41 639.67L115.7 639.85L121.5 623.58L121.73 624.26L121.83 625.14ZM115.16 639.57L114.82 639.02L114.69 638.21L114.78 637.14L115.07 635.8L115.57 634.19L116.28 632.32L117.08 630.43L117.87 628.75L118.63 627.29L119.38 626.04L120.1 625L120.81 624.18L121.5 623.58L115.7 639.85L115.16 639.57ZM94.42 624.3L94.47 625.18L94.36 626.27L94.12 627.56L93.72 629.06L93.19 630.76L92.51 632.66L91.76 634.53L91.01 636.11L90.27 637.41L89.53 638.43L88.8 639.17L88.07 639.62L87.35 639.79L86.83 639.5L86.77 639.41L86.71 639.38L86.1 638.66L85.73 637.53L85.61 635.99L85.72 634.04L86 632.04L86.38 630.36L86.86 629L87.43 627.96L88.1 627.23L88.7 627.96L89.18 629.02L89.48 630.18L90.26 628.73L91.12 627.28L91.95 626.04L92.75 625.02L93.51 624.21L94.24 623.62L94.24 623.62L94.42 624.3ZM97.39 629.13L97.52 630.5L97.47 632.19L97.24 634.18L96.86 636.13L96.34 637.66L95.69 638.77L94.91 639.47L93.98 639.76L93.19 639.43L92.71 638.7L92.53 637.56L92.66 636.02L93.1 634.08L93.71 632.09L94.37 630.42L95.07 629.07L95.81 628.04L96.6 627.33L96.6 627.33L97.08 628.07L97.39 629.13Z" id="m8DA6FgI0g"></path><path d="M206.48 625.35L207.04 626.7L207.37 627.75L207.82 628.07L208.83 629.07L209.87 630.4L210.95 632.04L212.07 633.99L213.01 635.92L213.53 637.44L213.65 638.58L213.35 639.33L212.65 639.68L211.66 639.43L210.7 638.76L209.76 637.67L208.87 636.18L208.89 636.48L208.8 637.92L208.51 638.98L208.02 639.68L207.33 640L206.56 639.72L205.9 639.06L205.34 638.01L204.89 636.59L204.55 634.79L204.31 632.6L204.19 630.37L204.17 628.43L204.27 626.77L204.48 625.4L204.81 624.32L205.25 623.53L205.89 624.3L206.48 625.35ZM187.53 625.03L188.16 626.08L188.79 627.34L189.42 628.82L190.04 630.51L190.67 632.42L190.79 632.84L191.24 632.11L192.41 630.48L193.52 629.16L194.58 628.17L195.58 627.49L195.83 628.25L195.81 629.31L195.51 630.68L194.95 632.36L194.11 634.33L193.13 636.25L192.15 637.75L191.71 638.23L191.71 638.34L191.51 639.14L191.12 639.68L190.55 639.95L189.75 639.7L189.66 639.62L189.16 639.75L188.47 639.39L188.21 638.64L188.31 638.03L188.3 638.03L187.66 636.62L187.08 634.83L186.55 632.66L186.12 630.44L185.85 628.5L185.72 626.84L185.75 625.47L185.93 624.38L186.26 623.58L186.9 624.2L187.53 625.03ZM233.04 625.31L233.64 626.65L234.02 627.74L234.11 627.41L235.14 628.09L236.24 629.08L237.4 630.39L238.63 632.02L239.92 633.96L241.02 635.87L241.68 637.39L241.9 638.53L241.67 639.28L241 639.64L239.99 639.4L238.97 638.74L237.94 637.66L236.9 636.16L235.85 634.25L235.41 633.3L235.64 634.61L235.81 636.42L235.77 637.86L235.52 638.93L235.05 639.63L234.37 639.95L231.75 623.5L232.41 624.26L233.04 625.31ZM233.59 639.68L232.91 639.02L232.32 637.98L231.82 636.56L231.42 634.76L231.11 632.58L230.91 630.35L230.83 628.41L230.88 626.75L231.04 625.38L231.34 624.3L231.75 623.5L234.37 639.95L233.59 639.68ZM161.79 625.3L162.22 626.66L162.58 628.3L162.87 630.24L163.1 632.47L163.21 634.66L163.16 636.47L162.93 637.9L162.55 638.96L161.99 639.65L161.27 639.95L160.53 639.66L159.93 638.98L159.47 637.93L159.16 636.5L158.98 634.69L158.95 632.5L159.03 630.27L159.19 628.33L159.45 626.68L159.79 625.31L160.21 624.24L160.72 623.46L161.29 624.23L161.79 625.3ZM213.23 625.13L214 626.16L214.79 627.4L215.61 628.86L216.46 630.53L217.34 632.42L217.38 632.52L217.57 632.09L218.45 630.44L219.33 629.1L220.21 628.08L221.1 627.38L221.48 628.14L221.64 629.2L221.58 630.57L221.31 632.26L220.81 634.25L220.17 636.18L219.45 637.7L219.13 638.14L219.15 638.29L219.05 639.1L218.74 639.65L218.21 639.94L217.49 639.76L217.28 639.63L216.81 639.76L216.06 639.42L215.68 638.68L215.66 637.98L215.36 637.53L214.65 636.23L213.95 634.64L213.25 632.77L212.63 630.86L212.14 629.16L211.79 627.66L211.58 626.37L211.51 625.28L211.57 624.4L211.78 623.72L212.49 624.32L213.23 625.13ZM227.91 625.15L227.88 626.24L227.73 627.53L227.48 628.88L227.61 629.03L228.5 630.36L229.39 632.02L230.29 633.99L231 635.92L231.35 637.46L231.33 638.6L230.95 639.34L230.21 639.68L229.25 639.41L228.36 638.73L227.55 637.63L226.82 636.11L226.16 634.17L226.09 633.89L225.88 634.53L225.25 636.13L224.61 637.44L223.95 638.47L223.27 639.22L222.58 639.68L221.87 639.87L221.32 639.59L220.98 639.04L220.85 638.23L220.93 637.16L221.21 635.82L221.7 634.21L222.4 632.34L223.19 630.45L223.96 628.77L224.72 627.3L225.46 626.05L226.18 625.02L226.88 624.19L227.56 623.59L227.8 624.27L227.91 625.15ZM200.84 625.14L200.81 626.23L200.65 627.52L200.36 629.03L199.99 630.51L200.01 630.46L200.65 629.1L201.35 628.07L202.11 627.35L202.62 628.09L202.97 629.15L203.16 630.52L203.19 632.21L203.05 634.2L202.75 636.15L202.3 637.68L201.7 638.8L200.94 639.51L200.03 639.79L199.23 639.47L198.71 638.74L198.49 637.6L198.55 636.06L198.9 634.12L198.93 634.01L198.76 634.52L198.12 636.11L197.47 637.43L196.8 638.46L196.12 639.2L195.42 639.67L194.71 639.85L194.17 639.57L193.83 639.02L193.7 638.21L193.79 637.14L194.08 635.8L194.58 634.19L195.29 632.33L196.09 630.43L196.87 628.75L197.64 627.29L198.39 626.04L199.11 625L199.82 624.19L200.51 623.58L200.74 624.26L200.84 625.14ZM182.62 637.68L181.73 636.17L180.86 634.24L180.81 634.1L180.65 634.74L180.06 636.52L179.41 637.93L178.71 638.95L177.96 639.59L177.15 639.85L176.58 639.58L176.2 639.04L176.01 638.23L175.99 637.16L176.17 635.81L176.53 634.2L177.07 632.32L177.71 630.41L178.35 628.72L178.99 627.24L179.62 625.98L180.26 624.93L180.9 624.1L181.53 623.48L181.53 623.48L181.86 624.29L182.03 625.37L182.05 626.75L181.92 628.4L181.81 629.15L182.79 630.41L183.86 632.05L184.96 634.01L185.88 635.93L186.39 637.46L186.5 638.6L186.2 639.34L185.49 639.69L184.5 639.44L183.55 638.77L182.62 637.68ZM173.43 624.3L173.47 625.18L173.37 626.27L173.12 627.56L172.73 629.06L172.2 630.76L171.52 632.66L170.76 634.53L170.02 636.11L169.28 637.41L168.54 638.43L167.81 639.17L167.08 639.62L166.36 639.79L165.84 639.51L165.78 639.41L165.71 639.38L165.11 638.66L164.74 637.53L164.62 635.99L164.73 634.04L165.01 632.04L165.39 630.37L165.86 629L166.44 627.96L167.11 627.23L167.71 627.96L168.19 629.02L168.49 630.18L169.27 628.73L170.13 627.28L170.96 626.04L171.76 625.02L172.52 624.21L173.25 623.62L173.25 623.62L173.43 624.3ZM176.4 629.13L176.53 630.5L176.48 632.19L176.25 634.19L175.87 636.13L175.35 637.66L174.7 638.77L173.91 639.47L172.99 639.76L172.2 639.43L171.72 638.7L171.54 637.56L171.67 636.02L172.11 634.08L172.72 632.09L173.38 630.42L174.08 629.07L174.82 628.04L175.61 627.33L175.61 627.33L176.09 628.07L176.4 629.13Z" id="a2z0NLMAl2"></path><path d="M286.42 625.35L286.98 626.7L287.31 627.75L287.76 628.07L288.77 629.07L289.81 630.4L290.89 632.04L292.01 633.99L292.95 635.92L293.47 637.44L293.59 638.58L293.29 639.33L292.59 639.68L291.6 639.43L290.64 638.76L289.7 637.67L288.81 636.18L288.82 636.48L288.74 637.92L288.45 638.98L287.96 639.68L287.26 640L286.5 639.72L285.84 639.06L285.28 638.01L284.83 636.59L284.49 634.79L284.25 632.6L284.12 630.37L284.11 628.43L284.21 626.77L284.42 625.4L284.75 624.32L285.19 623.53L285.19 623.53L285.82 624.29L286.42 625.35ZM267.46 625.03L268.1 626.08L268.73 627.34L269.35 628.82L269.98 630.51L270.61 632.42L270.73 632.84L271.18 632.11L272.35 630.48L273.46 629.16L274.52 628.17L275.52 627.49L275.77 628.25L275.75 629.31L275.45 630.68L274.88 632.36L274.05 634.33L273.07 636.25L272.08 637.75L271.65 638.23L271.65 638.34L271.45 639.14L271.06 639.68L270.49 639.95L269.69 639.69L269.6 639.62L269.09 639.75L268.41 639.39L268.15 638.64L268.25 638.03L268.24 638.03L267.6 636.62L267.02 634.83L266.49 632.66L266.06 630.44L265.79 628.5L265.66 626.84L265.69 625.47L265.87 624.38L266.2 623.58L266.83 624.2L267.46 625.03ZM313.53 639.68L312.85 639.02L312.26 637.98L311.76 636.56L311.36 634.76L311.05 632.58L310.85 630.35L310.77 628.41L310.82 626.75L310.98 625.38L311.27 624.3L311.69 623.5L314.31 639.95L313.53 639.68ZM241.72 625.3L242.15 626.66L242.52 628.3L242.81 630.24L243.04 632.47L243.15 634.66L243.09 636.47L242.87 637.9L242.49 638.96L241.93 639.65L241.21 639.95L240.47 639.66L239.87 638.98L239.41 637.93L239.1 636.5L238.92 634.69L238.89 632.5L238.97 630.27L239.13 628.33L239.38 626.68L239.72 625.31L240.15 624.24L240.66 623.46L240.66 623.46L241.23 624.23L241.72 625.3ZM312.98 625.31L313.58 626.65L313.96 627.74L314.05 627.41L314.43 628.09L314.05 627.41L315.08 628.09L316.18 629.08L317.34 630.39L318.56 632.02L319.86 633.96L320.96 635.87L321.62 637.39L321.84 638.53L321.61 639.28L320.94 639.64L319.93 639.4L318.9 638.74L317.87 637.66L316.83 636.16L315.78 634.25L315.35 633.3L315.58 634.61L315.75 636.42L315.71 637.86L315.45 638.93L314.99 639.63L314.31 639.95L311.69 623.5L312.35 624.26L312.98 625.31ZM293.17 625.13L293.94 626.16L294.73 627.4L295.55 628.86L296.4 630.53L297.28 632.42L297.32 632.52L297.51 632.09L298.39 630.44L299.27 629.1L300.15 628.08L301.04 627.38L301.42 628.14L301.58 629.2L301.52 630.57L301.24 632.26L300.75 634.25L300.11 636.18L299.38 637.7L299.07 638.14L299.09 638.29L298.99 639.1L298.68 639.65L298.14 639.94L297.43 639.76L297.22 639.63L296.75 639.76L296 639.42L295.62 638.68L295.6 637.98L295.29 637.53L294.59 636.23L293.89 634.64L293.19 632.77L292.57 630.86L292.08 629.16L291.73 627.66L291.52 626.37L291.45 625.28L291.51 624.4L291.72 623.72L292.43 624.32L293.17 625.13ZM307.84 625.15L307.82 626.24L307.67 627.53L307.42 628.88L307.55 629.03L308.44 630.36L309.33 632.02L310.23 633.99L310.94 635.92L311.29 637.46L311.27 638.6L310.89 639.34L310.15 639.68L309.19 639.41L308.3 638.73L307.49 637.63L306.76 636.11L306.1 634.17L306.03 633.89L305.82 634.53L305.19 636.13L304.55 637.44L303.89 638.47L303.21 639.22L302.52 639.68L301.81 639.87L301.26 639.59L300.92 639.04L300.79 638.23L300.87 637.16L301.15 635.82L301.64 634.21L302.34 632.34L303.13 630.45L303.9 628.77L304.66 627.3L305.4 626.05L306.12 625.01L306.82 624.19L307.5 623.59L307.74 624.26L307.84 625.15ZM261.97 625.37L261.99 626.75L261.86 628.4L261.75 629.15L262.73 630.4L263.8 632.05L264.9 634.01L265.82 635.93L266.33 637.46L266.44 638.6L266.14 639.34L265.43 639.69L264.44 639.44L263.49 638.77L262.56 637.68L261.67 636.17L260.8 634.24L260.75 634.1L260.59 634.73L260 636.52L259.35 637.93L258.65 638.95L257.9 639.59L257.09 639.85L256.52 639.58L256.14 639.04L255.94 638.23L255.93 637.16L256.11 635.81L256.47 634.2L257.01 632.32L257.65 630.41L258.29 628.72L258.93 627.24L259.56 625.98L260.2 624.93L260.83 624.1L261.47 623.48L261.8 624.29L261.97 625.37ZM280.78 625.14L280.75 626.23L280.59 627.52L280.3 629.02L279.93 630.51L279.95 630.46L280.59 629.1L281.29 628.07L282.05 627.35L282.56 628.09L282.91 629.15L283.1 630.52L283.13 632.21L282.99 634.2L282.69 636.15L282.24 637.68L281.64 638.8L280.88 639.5L279.97 639.79L279.17 639.47L278.65 638.74L278.42 637.6L278.49 636.06L278.84 634.12L278.87 634.01L278.7 634.52L278.06 636.11L277.4 637.43L276.74 638.46L276.05 639.2L275.36 639.67L274.65 639.85L280.45 623.58L280.68 624.26L280.78 625.14ZM274.1 639.57L273.77 639.02L273.64 638.21L273.72 637.14L274.02 635.8L274.52 634.19L275.22 632.32L276.03 630.43L276.81 628.75L277.58 627.29L278.32 626.04L279.05 625L279.76 624.18L280.45 623.58L274.65 639.85L274.1 639.57ZM253.37 624.3L253.41 625.18L253.31 626.27L253.06 627.56L252.67 629.06L252.13 630.76L251.45 632.66L250.7 634.53L249.96 636.11L249.22 637.41L248.48 638.43L247.75 639.17L247.02 639.62L246.3 639.79L245.77 639.5L245.72 639.41L245.65 639.38L245.05 638.66L244.68 637.53L244.55 635.99L244.67 634.04L244.95 632.04L245.33 630.36L245.8 629L246.38 627.96L247.04 627.23L247.65 627.96L248.13 629.02L248.43 630.18L249.21 628.73L250.07 627.28L250.9 626.04L251.69 625.02L252.46 624.21L253.19 623.62L253.19 623.62L253.37 624.3ZM256.34 629.13L256.46 630.5L256.41 632.19L256.19 634.18L255.81 636.13L255.29 637.66L254.64 638.77L253.85 639.47L252.93 639.76L252.14 639.43L251.66 638.7L251.48 637.56L251.61 636.02L252.05 634.08L252.66 632.09L253.32 630.42L254.02 629.07L254.76 628.04L255.55 627.33L255.55 627.33L256.03 628.07L256.34 629.13Z" id="b4ySHrAkk"></path><path d="M365.7 625.35L366.25 626.7L366.58 627.75L367.04 628.07L368.04 629.07L369.09 630.4L370.17 632.04L371.29 633.99L372.22 635.92L372.75 637.44L372.86 638.58L372.57 639.33L371.87 639.68L370.88 639.43L369.91 638.76L368.98 637.67L368.08 636.18L368.1 636.48L368.01 637.92L367.72 638.98L367.23 639.68L366.54 640L365.77 639.72L365.11 639.06L364.56 638.01L364.11 636.59L363.76 634.79L363.53 632.6L363.4 630.37L363.39 628.43L363.49 626.77L363.7 625.4L364.03 624.32L364.47 623.53L365.1 624.3L365.7 625.35ZM346.74 625.03L347.37 626.08L348 627.34L348.63 628.82L349.26 630.51L349.89 632.42L350.01 632.84L350.46 632.11L351.62 630.48L352.73 629.16L353.79 628.17L354.8 627.49L355.04 628.25L355.02 629.31L354.73 630.68L354.16 632.36L353.32 634.33L352.34 636.25L351.36 637.75L350.93 638.23L350.92 638.34L350.72 639.14L350.34 639.68L349.77 639.95L348.96 639.7L348.88 639.62L348.37 639.75L347.69 639.39L347.43 638.64L347.52 638.03L347.52 638.03L346.88 636.62L346.29 634.83L345.76 632.66L345.34 630.44L345.06 628.5L344.94 626.84L344.97 625.47L345.15 624.38L345.48 623.58L346.11 624.2L346.74 625.03ZM392.25 625.31L392.85 626.65L393.23 627.74L393.33 627.41L394.36 628.09L395.45 629.08L396.61 630.39L397.84 632.02L399.13 633.96L400.24 635.87L400.9 637.39L401.11 638.53L400.89 639.28L400.22 639.64L399.2 639.4L398.18 638.74L397.15 637.66L396.11 636.16L395.06 634.25L394.62 633.3L394.85 634.61L395.03 636.42L394.99 637.86L394.73 638.93L394.26 639.63L393.58 639.95L392.81 639.68L392.12 639.02L391.53 637.98L391.04 636.56L390.63 634.76L390.33 632.58L390.12 630.35L390.05 628.41L390.09 626.75L390.26 625.38L390.55 624.3L390.96 623.5L391.62 624.26L392.25 625.31ZM321 625.3L321.43 626.66L321.79 628.3L322.09 630.24L322.32 632.47L322.43 634.66L322.37 636.47L322.15 637.9L321.76 638.96L321.21 639.65L320.49 639.95L319.75 639.66L319.15 638.98L318.69 637.93L318.37 636.5L318.2 634.69L318.16 632.5L318.24 630.27L318.41 628.33L318.66 626.68L319 625.31L319.43 624.24L319.94 623.46L320.5 624.23L321 625.3ZM372.45 625.13L373.21 626.16L374.01 627.4L374.83 628.86L375.68 630.53L376.55 632.42L376.6 632.52L376.78 632.09L377.66 630.44L378.54 629.1L379.43 628.08L380.31 627.38L380.69 628.14L380.85 629.2L380.8 630.57L380.52 632.26L380.03 634.25L379.38 636.18L378.66 637.7L378.35 638.14L378.36 638.29L378.27 639.1L377.95 639.65L377.42 639.94L376.7 639.76L376.5 639.63L376.02 639.76L375.28 639.42L374.89 638.68L374.88 637.98L374.57 637.53L373.87 636.23L373.17 634.64L372.47 632.77L371.84 630.86L371.35 629.16L371.01 627.66L370.79 626.37L370.72 625.28L370.79 624.4L370.99 623.72L371.71 624.32L372.45 625.13ZM387.01 624.27L387.12 625.15L387.1 626.24L386.95 627.53L386.69 628.88L386.82 629.03L387.72 630.36L388.61 632.02L389.5 633.99L390.21 635.92L390.56 637.46L390.55 638.6L390.17 639.34L389.42 639.68L388.46 639.41L387.58 638.73L386.77 637.63L386.04 636.11L385.38 634.17L385.31 633.89L385.1 634.53L384.47 636.13L383.82 637.44L383.16 638.47L382.49 639.22L381.79 639.68L381.08 639.87L380.54 639.59L380.2 639.04L380.07 638.23L380.14 637.16L380.43 635.82L380.92 634.21L381.61 632.34L382.4 630.45L383.18 628.77L383.93 627.3L384.67 626.05L385.39 625.02L386.09 624.19L386.78 623.59L386.78 623.59L387.01 624.27ZM360.06 625.14L360.03 626.23L359.87 627.52L359.57 629.03L359.21 630.51L359.23 630.46L359.87 629.1L360.57 628.07L361.32 627.35L361.84 628.09L362.19 629.15L362.38 630.52L362.4 632.21L362.26 634.2L361.97 636.15L361.52 637.68L360.91 638.8L360.16 639.51L359.25 639.79L358.44 639.47L357.93 638.74L357.7 637.6L357.76 636.06L358.12 634.12L358.15 634.01L357.97 634.52L357.33 636.11L356.68 637.43L356.01 638.46L355.33 639.2L354.63 639.67L353.92 639.85L359.72 623.58L359.96 624.26L360.06 625.14ZM353.38 639.57L353.04 639.02L352.92 638.21L353 637.14L353.29 635.8L353.79 634.19L354.5 632.33L355.31 630.43L356.09 628.75L356.86 627.29L357.6 626.04L358.33 625L359.04 624.19L359.72 623.58L353.92 639.85L353.38 639.57ZM341.84 637.68L340.94 636.17L340.08 634.24L340.03 634.1L339.87 634.74L339.27 636.52L338.63 637.93L337.93 638.95L337.17 639.59L336.37 639.85L335.8 639.58L335.42 639.04L335.22 638.23L335.21 637.16L335.38 635.81L335.74 634.2L336.29 632.32L336.93 630.41L337.57 628.72L338.2 627.24L338.84 625.98L339.48 624.93L340.11 624.1L340.75 623.48L340.75 623.48L341.07 624.29L341.25 625.37L341.27 626.75L341.14 628.4L341.03 629.15L342.01 630.41L343.08 632.05L344.18 634.01L345.1 635.93L345.61 637.46L345.71 638.6L345.41 639.34L344.71 639.69L343.72 639.44L342.76 638.77L341.84 637.68ZM332.65 624.3L332.69 625.18L332.59 626.27L332.34 627.56L331.95 629.06L331.41 630.76L330.73 632.66L329.98 634.53L329.23 636.11L328.49 637.41L327.76 638.43L327.02 639.17L326.3 639.62L325.58 639.79L325.05 639.51L325 639.41L324.93 639.38L324.32 638.66L323.96 637.53L323.83 635.99L323.94 634.04L324.23 632.04L324.6 630.37L325.08 629L325.65 627.96L326.32 627.23L326.93 627.96L327.41 629.02L327.71 630.18L328.48 628.73L329.35 627.28L330.18 626.04L330.97 625.02L331.73 624.21L332.46 623.62L332.46 623.62L332.65 624.3ZM335.61 629.13L335.74 630.5L335.69 632.19L335.46 634.19L335.08 636.13L334.57 637.66L333.91 638.77L333.13 639.47L332.21 639.76L331.42 639.43L330.93 638.7L330.75 637.56L330.89 636.02L331.32 634.08L331.94 632.09L332.59 630.42L333.29 629.07L334.04 628.04L334.83 627.33L334.83 627.33L335.31 628.07L335.61 629.13Z" id="gFAt1CEOp"></path><path d="M445.63 625.35L446.19 626.7L446.52 627.75L446.97 628.07L447.98 629.07L449.03 630.4L450.11 632.04L451.23 633.99L452.16 635.92L452.69 637.44L452.8 638.58L452.51 639.33L451.8 639.68L450.81 639.43L449.85 638.76L448.92 637.67L448.02 636.18L448.04 636.48L447.95 637.92L447.66 638.98L447.17 639.68L446.48 640L445.71 639.72L445.05 639.06L444.5 638.01L444.05 636.59L443.7 634.79L443.47 632.6L443.34 630.37L443.33 628.43L443.43 626.77L443.64 625.4L443.96 624.32L444.4 623.53L444.4 623.53L445.04 624.29L445.63 625.35ZM426.68 625.03L427.31 626.08L427.94 627.34L428.57 628.82L429.2 630.51L429.83 632.42L429.94 632.84L430.4 632.11L431.56 630.48L432.67 629.16L433.73 628.17L434.73 627.49L434.98 628.25L434.96 629.31L434.67 630.68L434.1 632.36L433.26 634.33L432.28 636.25L431.3 637.75L430.86 638.23L430.86 638.34L430.66 639.14L430.28 639.68L429.71 639.95L428.9 639.69L428.82 639.62L428.31 639.75L427.62 639.39L427.37 638.64L427.46 638.03L427.46 638.03L426.82 636.62L426.23 634.83L425.7 632.66L425.28 630.44L425 628.5L424.88 626.84L424.9 625.47L425.08 624.38L425.42 623.58L426.05 624.2L426.68 625.03ZM472.74 639.68L472.06 639.02L471.47 637.98L470.98 636.56L470.57 634.76L470.26 632.58L470.06 630.35L469.99 628.41L470.03 626.75L470.2 625.38L470.49 624.3L470.9 623.5L473.52 639.95L472.74 639.68ZM400.94 625.3L401.37 626.66L401.73 628.3L402.03 630.24L402.25 632.47L402.37 634.66L402.31 636.47L402.09 637.9L401.7 638.96L401.15 639.65L400.42 639.95L399.68 639.66L399.08 638.98L398.63 637.93L398.31 636.5L398.13 634.69L398.1 632.5L398.18 630.27L398.35 628.33L398.6 626.68L398.94 625.31L399.37 624.24L399.88 623.46L399.88 623.46L400.44 624.23L400.94 625.3ZM472.19 625.31L472.79 626.65L473.17 627.74L473.27 627.41L473.27 627.41L474.3 628.09L475.39 629.08L476.55 630.39L477.78 632.02L479.07 633.96L480.18 635.87L480.84 637.39L481.05 638.53L480.82 639.28L480.15 639.64L479.14 639.4L478.12 638.74L477.09 637.66L476.05 636.16L475 634.25L474.56 633.3L474.79 634.61L474.96 636.42L474.92 637.86L474.67 638.93L474.2 639.63L473.52 639.95L470.9 623.5L471.56 624.26L472.19 625.31ZM452.38 625.13L453.15 626.16L453.94 627.4L454.77 628.86L455.62 630.53L456.49 632.42L456.53 632.52L456.72 632.09L457.6 630.44L458.48 629.1L459.37 628.08L460.25 627.38L460.63 628.14L460.79 629.2L460.74 630.57L460.46 632.26L459.96 634.25L459.32 636.18L458.6 637.7L458.28 638.14L458.3 638.29L458.21 639.1L457.89 639.65L457.36 639.94L456.64 639.76L456.44 639.63L455.96 639.76L455.22 639.42L454.83 638.68L454.82 637.98L454.51 637.53L453.81 636.23L453.1 634.64L452.41 632.77L451.78 630.86L451.29 629.16L450.94 627.66L450.73 626.37L450.66 625.28L450.73 624.4L450.93 623.72L451.64 624.32L452.38 625.13ZM467.06 625.15L467.04 626.24L466.88 627.53L466.63 628.88L466.76 629.03L467.65 630.36L468.55 632.02L469.44 633.99L470.15 635.92L470.5 637.46L470.48 638.6L470.1 639.34L469.36 639.68L468.4 639.41L467.52 638.73L466.71 637.63L465.98 636.11L465.32 634.17L465.25 633.89L465.04 634.53L464.41 636.13L463.76 637.44L463.1 638.47L462.42 639.22L461.73 639.68L461.02 639.87L460.48 639.59L460.14 639.04L460.01 638.23L460.08 637.16L460.36 635.82L460.85 634.21L461.55 632.34L462.34 630.45L463.12 628.77L463.87 627.3L464.61 626.05L465.33 625.01L466.03 624.19L466.72 623.59L466.95 624.26L467.06 625.15ZM421.77 637.68L420.88 636.17L420.02 634.24L419.97 634.1L419.81 634.73L419.21 636.52L418.56 637.93L417.86 638.95L417.11 639.59L416.31 639.85L415.74 639.58L415.36 639.04L415.16 638.23L415.15 637.16L415.32 635.81L415.68 634.2L416.23 632.32L416.87 630.41L417.5 628.72L418.14 627.24L418.78 625.98L419.41 624.93L420.05 624.1L420.68 623.48L421.01 624.29L421.19 625.37L421.21 626.75L421.07 628.4L420.96 629.15L421.95 630.4L423.01 632.05L424.12 634.01L425.03 635.93L425.55 637.46L425.65 638.6L425.35 639.34L424.64 639.69L423.66 639.44L422.7 638.77L421.77 637.68ZM439.99 625.14L439.96 626.23L439.8 627.52L439.51 629.02L439.15 630.51L439.16 630.46L439.81 629.1L440.51 628.07L441.26 627.35L441.78 628.09L442.13 629.15L442.32 630.52L442.34 632.21L442.2 634.2L441.9 636.15L441.45 637.68L440.85 638.8L440.1 639.5L439.19 639.79L438.38 639.47L437.87 638.74L437.64 637.6L437.7 636.06L438.05 634.12L438.08 634.01L437.91 634.52L437.27 636.11L436.62 637.43L435.95 638.46L435.27 639.2L434.57 639.67L433.86 639.85L439.66 623.58L439.89 624.26L439.99 625.14ZM433.32 639.57L432.98 639.02L432.86 638.21L432.94 637.14L433.23 635.8L433.73 634.19L434.44 632.32L435.24 630.43L436.03 628.75L436.79 627.29L437.54 626.04L438.27 625L438.97 624.18L439.66 623.58L433.86 639.85L433.32 639.57ZM412.59 624.3L412.63 625.18L412.53 626.27L412.28 627.56L411.89 629.06L411.35 630.76L410.67 632.66L409.92 634.53L409.17 636.11L408.43 637.41L407.69 638.43L406.96 639.17L406.24 639.62L405.51 639.79L404.99 639.5L404.94 639.41L404.87 639.38L404.26 638.66L403.9 637.53L403.77 635.99L403.88 634.04L404.16 632.04L404.54 630.36L405.02 629L405.59 627.96L406.26 627.23L406.86 627.96L407.34 629.02L407.65 630.18L408.42 628.73L409.28 627.28L410.11 626.04L410.91 625.02L411.67 624.21L412.4 623.62L412.4 623.62L412.59 624.3ZM415.55 629.13L415.68 630.5L415.63 632.19L415.4 634.18L415.02 636.13L414.5 637.66L413.85 638.77L413.07 639.47L412.15 639.76L411.35 639.43L410.87 638.7L410.69 637.56L410.82 636.02L411.26 634.08L411.87 632.09L412.53 630.42L413.23 629.07L413.98 628.04L414.77 627.33L414.77 627.33L415.25 628.07L415.55 629.13Z" id="a62tqoDNv"></path><path d="M524.64 625.35L525.2 626.7L525.53 627.75L525.98 628.07L526.99 629.07L528.03 630.4L529.12 632.04L530.24 633.99L531.17 635.92L531.7 637.44L531.81 638.58L531.52 639.33L530.81 639.68L529.82 639.43L528.86 638.76L527.93 637.67L527.03 636.18L527.05 636.48L526.96 637.92L526.67 638.98L526.18 639.68L525.49 640L524.72 639.72L524.06 639.06L523.5 638.01L523.05 636.59L522.71 634.79L522.48 632.6L522.35 630.37L522.33 628.43L522.43 626.77L522.65 625.4L522.97 624.32L523.41 623.53L524.05 624.3L524.64 625.35ZM505.69 625.03L506.32 626.08L506.95 627.34L507.58 628.82L508.21 630.51L508.83 632.42L508.95 632.84L509.4 632.11L510.57 630.48L511.68 629.16L512.74 628.17L513.74 627.49L513.99 628.25L513.97 629.31L513.67 630.68L513.11 632.36L512.27 634.33L511.29 636.25L510.31 637.75L509.87 638.23L509.87 638.34L509.67 639.14L509.28 639.68L508.71 639.95L507.91 639.7L507.82 639.62L507.32 639.75L506.63 639.39L506.38 638.64L506.47 638.03L506.47 638.03L505.83 636.62L505.24 634.83L504.71 632.66L504.28 630.44L504.01 628.5L503.89 626.84L503.91 625.47L504.09 624.38L504.43 623.58L505.06 624.2L505.69 625.03ZM479.95 625.3L480.38 626.66L480.74 628.3L481.04 630.24L481.26 632.47L481.37 634.66L481.32 636.47L481.1 637.9L480.71 638.96L480.15 639.65L479.43 639.95L478.89 623.46L479.45 624.23L479.95 625.3ZM551.2 625.31L551.8 626.65L552.18 627.74L552.28 627.41L553.31 628.09L554.4 629.08L555.56 630.39L556.79 632.02L558.08 633.96L559.19 635.87L559.85 637.39L560.06 638.53L559.83 639.28L559.16 639.64L558.15 639.4L557.13 638.74L556.1 637.66L555.06 636.16L554.01 634.25L553.57 633.3L553.8 634.61L553.97 636.42L553.93 637.86L553.68 638.93L553.21 639.63L552.53 639.95L551.75 639.68L551.07 639.02L550.48 637.98L549.98 636.56L549.58 634.76L549.27 632.58L549.07 630.35L548.99 628.41L549.04 626.75L549.21 625.38L549.5 624.3L549.91 623.5L550.57 624.26L551.2 625.31ZM478.69 639.66L478.09 638.98L477.64 637.93L477.32 636.5L477.14 634.69L477.11 632.5L477.19 630.27L477.36 628.33L477.61 626.68L477.95 625.31L478.37 624.24L478.89 623.46L479.43 639.95L478.69 639.66ZM531.39 625.13L532.16 626.16L532.95 627.4L533.77 628.86L534.62 630.53L535.5 632.42L535.54 632.52L535.73 632.09L536.61 630.44L537.49 629.1L538.37 628.08L539.26 627.38L539.64 628.14L539.8 629.2L539.74 630.57L539.47 632.26L538.97 634.25L538.33 636.18L537.61 637.7L537.29 638.14L537.31 638.29L537.21 639.1L536.9 639.65L536.37 639.94L535.65 639.76L535.44 639.63L534.97 639.76L534.22 639.42L533.84 638.68L533.82 637.98L533.52 637.53L532.81 636.23L532.11 634.64L531.42 632.77L530.79 630.86L530.3 629.16L529.95 627.66L529.74 626.37L529.67 625.28L529.74 624.4L529.94 623.72L530.65 624.32L531.39 625.13ZM546.07 625.15L546.04 626.24L545.89 627.53L545.64 628.88L545.77 629.03L546.66 630.36L547.56 632.02L548.45 633.99L549.16 635.92L549.51 637.46L549.49 638.6L549.11 639.34L548.37 639.68L547.41 639.41L546.53 638.73L545.72 637.63L544.98 636.11L544.33 634.17L544.26 633.89L544.05 634.53L543.42 636.13L542.77 637.44L542.11 638.47L541.43 639.22L540.74 639.68L540.03 639.87L539.49 639.59L539.15 639.04L539.01 638.23L539.09 637.16L539.37 635.82L539.86 634.21L540.56 632.34L541.35 630.45L542.12 628.77L542.88 627.3L543.62 626.05L544.34 625.02L545.04 624.19L545.73 623.59L545.96 624.27L546.07 625.15ZM500.78 637.68L499.89 636.17L499.03 634.24L498.97 634.1L498.82 634.74L498.22 636.52L497.57 637.93L496.87 638.95L496.12 639.59L495.32 639.85L494.75 639.58L494.36 639.04L494.17 638.23L494.16 637.16L494.33 635.81L494.69 634.2L495.24 632.32L495.87 630.41L496.51 628.72L497.15 627.24L497.79 625.98L498.42 624.93L499.06 624.1L499.69 623.48L499.69 623.48L500.02 624.29L500.19 625.37L500.22 626.75L500.08 628.4L499.97 629.15L500.95 630.41L502.02 632.05L503.13 634.01L504.04 635.93L504.56 637.46L504.66 638.6L504.36 639.34L503.65 639.69L502.67 639.44L501.71 638.77L500.78 637.68ZM519 625.14L518.97 626.23L518.81 627.52L518.52 629.03L518.15 630.51L518.17 630.46L518.81 629.1L519.51 628.07L520.27 627.35L518.2 639.79L517.39 639.47L516.87 638.74L516.65 637.6L516.71 636.06L517.06 634.12L517.09 634.01L516.92 634.52L516.28 636.11L515.63 637.43L514.96 638.46L514.28 639.2L513.58 639.67L512.87 639.85L518.67 623.58L518.9 624.26L519 625.14ZM512.33 639.57L511.99 639.02L511.87 638.21L511.95 637.14L512.24 635.8L512.74 634.19L513.45 632.33L514.25 630.43L515.04 628.75L515.8 627.29L516.55 626.04L517.28 625L517.98 624.19L518.67 623.58L512.87 639.85L512.33 639.57ZM491.6 624.3L491.64 625.18L491.53 626.27L491.29 627.56L490.89 629.06L490.36 630.76L489.68 632.66L488.93 634.53L488.18 636.11L487.44 637.41L486.7 638.43L485.97 639.17L485.25 639.62L484.52 639.79L484 639.51L483.95 639.41L483.88 639.38L483.27 638.66L482.9 637.53L482.78 635.99L482.89 634.04L483.17 632.04L483.55 630.37L484.03 629L484.6 627.96L485.27 627.23L485.87 627.96L486.35 629.02L486.65 630.18L487.43 628.73L488.29 627.28L489.12 626.04L489.92 625.02L490.68 624.21L491.41 623.62L491.41 623.62L491.6 624.3ZM521.14 629.15L521.32 630.52L521.35 632.21L521.21 634.2L520.91 636.15L520.46 637.68L519.86 638.8L519.11 639.51L518.2 639.79L520.27 627.35L520.79 628.09L521.14 629.15ZM494.56 629.13L494.69 630.5L494.64 632.19L494.41 634.19L494.03 636.13L493.51 637.66L492.86 638.77L492.08 639.47L491.15 639.76L490.36 639.43L489.88 638.7L489.7 637.56L489.83 636.02L490.27 634.08L490.88 632.09L491.54 630.42L492.24 629.07L492.99 628.04L493.77 627.33L493.77 627.33L494.26 628.07L494.56 629.13Z" id="axysIdbLj"></path><path d="M604.58 625.35L605.14 626.7L605.47 627.75L605.92 628.07L606.93 629.07L607.97 630.4L609.05 632.04L610.17 633.99L611.11 635.92L611.63 637.44L611.75 638.58L611.45 639.33L610.75 639.68L609.76 639.43L608.8 638.76L607.86 637.67L606.97 636.18L606.99 636.48L606.9 637.92L606.61 638.98L606.12 639.68L605.43 640L604.66 639.72L604 639.06L603.44 638.01L602.99 636.59L602.65 634.79L602.41 632.6L602.29 630.37L602.27 628.43L602.37 626.77L602.59 625.4L602.91 624.32L603.35 623.53L603.35 623.53L603.99 624.29L604.58 625.35ZM585.63 625.03L586.26 626.08L586.89 627.34L587.52 628.82L588.15 630.51L588.77 632.42L588.89 632.84L589.34 632.11L590.51 630.48L591.62 629.16L592.68 628.17L593.68 627.49L593.93 628.25L593.91 629.31L593.61 630.68L593.05 632.36L592.21 634.33L591.23 636.25L590.25 637.75L589.81 638.23L589.81 638.34L589.61 639.14L589.22 639.68L588.65 639.95L587.85 639.69L587.76 639.62L587.26 639.75L586.57 639.39L586.32 638.64L586.41 638.03L586.41 638.03L585.77 636.62L585.18 634.83L584.65 632.66L584.22 630.44L583.95 628.5L583.82 626.84L583.85 625.47L584.03 624.38L584.36 623.58L585 624.2L585.63 625.03ZM631.69 639.68L631.01 639.02L630.42 637.98L629.92 636.56L629.52 634.76L629.21 632.58L629.01 630.35L628.93 628.41L628.98 626.75L629.15 625.38L629.44 624.3L629.85 623.5L632.47 639.95L631.69 639.68ZM559.89 625.3L560.32 626.66L560.68 628.3L560.97 630.24L561.2 632.47L561.31 634.66L561.26 636.47L561.04 637.9L560.65 638.96L560.09 639.65L559.37 639.95L558.63 639.66L558.03 638.98L557.57 637.93L557.26 636.5L557.08 634.69L557.05 632.5L557.13 630.27L557.29 628.33L557.55 626.68L557.89 625.31L558.31 624.24L558.83 623.46L558.83 623.46L559.39 624.23L559.89 625.3ZM631.14 625.31L631.74 626.65L632.12 627.74L632.21 627.41L632.59 628.09L632.21 627.41L633.24 628.09L634.34 629.08L635.5 630.39L636.73 632.02L638.02 633.96L639.12 635.87L639.78 637.39L640 638.53L639.77 639.28L639.1 639.64L638.09 639.4L637.07 638.74L636.04 637.66L635 636.16L633.95 634.25L633.51 633.3L633.74 634.61L633.91 636.42L633.87 637.86L633.62 638.93L633.15 639.63L632.47 639.95L629.85 623.5L630.51 624.26L631.14 625.31ZM611.33 625.13L612.1 626.16L612.89 627.4L613.71 628.86L614.56 630.53L615.44 632.42L615.48 632.52L615.67 632.09L616.55 630.44L617.43 629.1L618.31 628.08L619.2 627.38L619.58 628.14L619.74 629.2L619.68 630.57L619.41 632.26L618.91 634.25L618.27 636.18L617.55 637.7L617.23 638.14L617.25 638.29L617.15 639.1L616.84 639.65L616.3 639.94L615.59 639.76L615.38 639.63L614.91 639.76L614.16 639.42L613.78 638.68L613.76 637.98L613.46 637.53L612.75 636.23L612.05 634.64L611.35 632.77L610.73 630.86L610.24 629.16L609.89 627.66L609.68 626.37L609.61 625.28L609.67 624.4L609.88 623.72L610.59 624.32L611.33 625.13ZM626.01 625.15L625.98 626.24L625.83 627.53L625.58 628.88L625.71 629.03L626.6 630.36L627.49 632.02L628.39 633.99L629.1 635.92L629.45 637.46L629.43 638.6L629.05 639.34L628.31 639.68L627.35 639.41L626.46 638.73L625.66 637.63L624.92 636.11L624.27 634.17L624.19 633.89L623.98 634.53L623.35 636.13L622.71 637.44L622.05 638.47L621.37 639.22L620.68 639.68L619.97 639.87L619.42 639.59L619.08 639.04L618.95 638.23L619.03 637.16L619.31 635.82L619.8 634.21L620.5 632.34L621.29 630.45L622.06 628.77L622.82 627.3L623.56 626.05L624.28 625.01L624.98 624.19L625.66 623.59L625.9 624.26L626.01 625.15ZM580.13 625.37L580.15 626.75L580.02 628.4L579.91 629.15L580.89 630.4L581.96 632.05L583.06 634.01L583.98 635.93L584.49 637.46L584.6 638.6L584.3 639.34L583.59 639.69L582.6 639.44L581.65 638.77L580.72 637.68L579.83 636.17L578.96 634.24L578.91 634.1L578.75 634.73L578.16 636.52L577.51 637.93L576.81 638.95L576.06 639.59L575.25 639.85L574.69 639.58L574.3 639.04L574.11 638.23L574.09 637.16L574.27 635.81L574.63 634.2L575.17 632.32L575.81 630.41L576.45 628.72L577.09 627.24L577.72 625.98L578.36 624.93L579 624.1L579.63 623.48L579.96 624.29L580.13 625.37ZM598.94 625.14L598.91 626.23L598.75 627.52L598.46 629.02L598.09 630.51L598.11 630.46L598.75 629.1L599.45 628.07L600.21 627.35L600.72 628.09L601.08 629.15L601.26 630.52L601.29 632.21L601.15 634.2L600.85 636.15L600.4 637.68L599.8 638.8L599.04 639.5L598.14 639.79L597.33 639.47L596.81 638.74L596.59 637.6L596.65 636.06L597 634.12L597.03 634.01L596.86 634.52L596.22 636.11L595.57 637.43L594.9 638.46L594.22 639.2L593.52 639.67L592.81 639.85L598.61 623.58L598.84 624.26L598.94 625.14ZM592.27 639.57L591.93 639.02L591.8 638.21L591.89 637.14L592.18 635.8L592.68 634.19L593.39 632.32L594.19 630.43L594.98 628.75L595.74 627.29L596.49 626.04L597.21 625L597.92 624.18L598.61 623.58L592.81 639.85L592.27 639.57ZM571.53 624.3L571.58 625.18L571.47 626.27L571.22 627.56L570.83 629.06L570.3 630.76L569.62 632.66L568.87 634.53L568.12 636.11L567.38 637.41L566.64 638.43L565.91 639.17L565.18 639.62L564.46 639.79L563.94 639.5L563.88 639.41L563.81 639.38L563.21 638.66L562.84 637.53L562.72 635.99L562.83 634.04L563.11 632.04L563.49 630.36L563.97 629L564.54 627.96L565.21 627.23L565.81 627.96L566.29 629.02L566.59 630.18L567.37 628.73L568.23 627.28L569.06 626.04L569.86 625.02L570.62 624.21L571.35 623.62L571.35 623.62L571.53 624.3ZM574.5 629.13L574.63 630.5L574.58 632.19L574.35 634.18L573.97 636.13L573.45 637.66L572.8 638.77L572.01 639.47L571.09 639.76L570.3 639.43L569.82 638.7L569.64 637.56L569.77 636.02L570.21 634.08L570.82 632.09L571.48 630.42L572.18 629.07L572.92 628.04L573.71 627.33L573.71 627.33L574.19 628.07L574.5 629.13Z" id="h4eTTGBP6R"></path></defs><g><g><use xlink:href="#bi3OtdTOr" opacity="1" fill="#4a2819" fill-opacity="1"></use></g><g><use xlink:href="#i3eic8O3Hr" opacity="1" fill="#537d28" fill-opacity="1"></use></g><g><use xlink:href="#dPVBfpDmJ" opacity="1" fill="#537d28" fill-opacity="1"></use></g><g><use xlink:href="#b27tl1tzqv" opacity="1" fill="#537d28" fill-opacity="1"></use></g><g><use xlink:href="#bontcZULX" opacity="1" fill="#537d28" fill-opacity="1"></use></g><g><use xlink:href="#b1sAvGshhK" opacity="1" fill="#b4c34e" fill-opacity="1"></use></g><g><use xlink:href="#bkgZ6DJky" opacity="1" fill="#b4c34e" fill-opacity="1"></use></g><g><use xlink:href="#a2xaZ09Uz" opacity="1" fill="#b4c34e" fill-opacity="1"></use></g><g><use xlink:href="#gHSRzuUvy" opacity="1" fill="#b4c34e" fill-opacity="1"></use></g><g><use xlink:href="#d5pC4o9xda" opacity="1" fill="#81a13f" fill-opacity="1"></use></g><g><use xlink:href="#cuetuLp2" opacity="1" fill="#81a13f" fill-opacity="1"></use></g><g><use xlink:href="#ctBh9hiku" opacity="1" fill="#81a13f" fill-opacity="1"></use></g><g><use xlink:href="#c2GYuAAVPD" opacity="1" fill="#81a13f" fill-opacity="1"></use></g><g><use xlink:href="#jt32MKDQd" opacity="1" fill="#9bb466" fill-opacity="1"></use></g><g><use xlink:href="#b4c74lVZLa" opacity="1" fill="#537d28" fill-opacity="1"></use></g><g><use xlink:href="#a2d4PgbxJO" opacity="1" fill="#9bb466" fill-opacity="1"></use></g><g><use xlink:href="#g27QZ3gDg" opacity="1" fill="#9bb466" fill-opacity="1"></use></g><g><use xlink:href="#e1a5BkvOVB" opacity="1" fill="#b4c34e" fill-opacity="1"></use></g><g><use xlink:href="#fjt5QoDLb" opacity="1" fill="#537d28" fill-opacity="1"></use></g><g><use xlink:href="#aUEgOIYoA" opacity="1" fill="#81a13f" fill-opacity="1"></use></g><g><use xlink:href="#d4yaPubJCT" opacity="1" fill="#81a13f" fill-opacity="1"></use></g><g><use xlink:href="#c4Mj2ayZra" opacity="1" fill="#9bb466" fill-opacity="1"></use></g><g><use xlink:href="#evIoKVFM" opacity="1" fill="#b4c34e" fill-opacity="1"></use></g><g><use xlink:href="#b9fymBBak" opacity="1" fill="#537d28" fill-opacity="1"></use></g><g><use xlink:href="#f1XYmHEmC" opacity="1" fill="#81a13f" fill-opacity="1"></use></g><g><use xlink:href="#boKFagRyM" opacity="1" fill="#81a13f" fill-opacity="1"></use></g><g><use xlink:href="#fnlIMre6V" opacity="1" fill="#b4c34e" fill-opacity="1"></use></g><g><use xlink:href="#a1UL4C2Pus" opacity="1" fill="#81a13f" fill-opacity="1"></use></g><g><use xlink:href="#arpHXQAEw" opacity="1" fill="#81a13f" fill-opacity="1"></use></g><g><use xlink:href="#a1pPueRqCT" opacity="1" fill="#608c33" fill-opacity="1"></use></g><g><use xlink:href="#m8DA6FgI0g" opacity="1" fill="#608c33" fill-opacity="1"></use></g><g><use xlink:href="#a2z0NLMAl2" opacity="1" fill="#608c33" fill-opacity="1"></use></g><g><use xlink:href="#b4ySHrAkk" opacity="1" fill="#608c33" fill-opacity="1"></use></g><g><use xlink:href="#gFAt1CEOp" opacity="1" fill="#608c33" fill-opacity="1"></use></g><g><use xlink:href="#a62tqoDNv" opacity="1" fill="#608c33" fill-opacity="1"></use></g><g><use xlink:href="#axysIdbLj" opacity="1" fill="#608c33" fill-opacity="1"></use></g><g><use xlink:href="#h4eTTGBP6R" opacity="1" fill="#608c33" fill-opacity="1"></use></g></g></svg>