<?xml version="1.0" encoding="UTF-8" standalone="no"?>
<!DOCTYPE svg PUBLIC "-//W3C//DTD SVG 1.1//EN" "http://www.w3.org/Graphics/SVG/1.1/DTD/svg11.dtd">
<svg version="1.1" xmlns="http://www.w3.org/2000/svg" xmlns:xlink="http://www.w3.org/1999/xlink" preserveAspectRatio="xMidYMid meet" viewBox="240.8342691086298 237.9063970024324 218.99343236202472 165.65585362697232" width="214.99" height="161.66"><defs><path d="M340.65 332.09C339.4 332.99 337.31 334.78 334.4 337.44C335.45 334.3 335.59 330.93 334.83 327.34C332.64 313.9 342.72 307.25 350.33 301.69C354.81 298.42 358.02 293.02 358.48 293.54C366.8 317.53 351.5 324.39 340.65 332.09Z" id="dw2Wc24nP"></path><path d="M426.2 283.06C425.15 282.96 423.26 282.93 420.52 283C422.63 281.77 424.42 279.99 425.91 277.65C435.22 264.23 454.5 269.05 454.38 270.42C445.96 287.63 435.26 284.04 426.2 283.06Z" id="eBs60GBt1"></path><path d="M277.74 334.97C278.84 335.48 280.9 336.18 283.9 337.09C281.11 337.75 278.42 339.17 275.84 341.35C265.99 349.03 257.58 344.73 250.81 341.72C246.83 339.96 241.59 340.07 241.84 339.5C258.05 322.59 268.26 330.59 277.74 334.97Z" id="avr47TAq0"></path><path d="M394.74 354.96C414.77 368.71 409.89 382.23 405.76 394.65C405.24 396.26 404.86 397.97 404.63 399.77C404.29 396.66 402.15 393.81 398.2 391.23C388.8 384.5 385.48 375.94 388.23 365.56L390.58 349.71C391.87 352.19 393.25 353.94 394.74 354.96Z" id="aaX0blqSHm"></path><path d="M298.24 393.63C301.91 368.37 288.8 362.71 277.01 357.23C275.49 356.51 274 355.61 272.53 354.52C274.55 356.97 275.16 360.64 274.35 365.53C272.84 377.58 276.77 386.17 286.16 391.29L299.22 400.56C298.3 397.82 297.97 395.51 298.24 393.63Z" id="b2yNoJL7ws"></path><path d="M263.98 301.16C280.38 310.78 290.35 304.2 299.59 298.4C300.79 297.66 302.1 296.98 303.54 296.38C302.19 295.23 299.95 293.69 296.82 291.77C284.93 285.11 271 292.88 263.65 297.35C260.77 299.1 259.09 299.91 258.59 299.76C260.97 299.98 262.77 300.45 263.98 301.16Z" id="bew9JcYRM"></path><path d="M406.59 328.62C405.04 328.56 402.31 328.69 398.38 329.01C401.11 327.17 403.25 324.6 404.8 321.3C411.14 309.34 423.2 310.27 432.64 310.54C438.18 310.71 443.99 308.41 444.05 309.11C436.24 333.15 419.89 329.18 406.59 328.62Z" id="c2G8nPD5g8"></path><path d="M364.13 346.92C360.68 334.87 368.01 330.45 374.58 326.29C375.42 325.75 376.24 325.12 377.04 324.4C377.59 325.48 378.23 327.18 378.96 329.5C381.22 338.17 372.06 344.67 366.94 348.01C364.94 349.32 363.94 350.14 363.93 350.47C364.32 349 364.39 347.82 364.13 346.92Z" id="a269W2L9s"></path><path d="M357.61 392.49C357.58 393.38 357.7 394.96 357.97 397.22C356.6 395.67 354.7 394.45 352.27 393.59C343.46 390.04 344.03 383.07 344.14 377.62C344.21 374.43 342.48 371.09 342.99 371.05C360.66 375.34 357.9 384.81 357.61 392.49Z" id="aI7A3RjP3"></path><path d="M388.31 268.74C387.67 270 386.3 272.1 384.21 275.07C387.29 273.74 390.84 273.21 394.86 273.47C409.74 273.86 414.26 263.89 418.25 256.3C420.6 251.84 425.53 248.27 424.86 247.91C397.18 243.22 393.77 257.96 388.31 268.74Z" id="c82VAyxmC5"></path><path d="M253.14 246.08C272.79 245.59 277.34 255.84 281.74 265.1C282.32 266.29 283.04 267.48 283.9 268.67C282.07 269.01 279.25 269.27 275.45 269.44C261.39 269.53 254.18 256.4 250.6 249.16C249.19 246.32 248.24 244.85 247.73 244.74C249.88 245.67 251.69 246.12 253.14 246.08Z" id="aRQlokGzv"></path><path d="M335.81 244.91C336.79 243.86 338.32 241.86 340.4 238.91C340.41 241.95 341.43 245.03 343.46 248.14C350.4 259.93 342.31 267.82 336.38 274.27C332.9 278.06 331.46 283.54 330.8 283.16C313.89 262.93 327.29 253.89 335.81 244.91Z" id="boICkVvFb"></path><path d="M451.08 388.03C439.03 377.04 442.89 368.62 446.2 360.85C446.62 359.85 446.95 358.76 447.2 357.6C447.25 359.68 448.46 361.76 450.84 363.84C456.48 369.18 458.13 375.13 455.81 381.69L453.45 391.89C452.76 390.13 451.97 388.84 451.08 388.03Z" id="b4OywlEHvI"></path></defs><g><g><use xlink:href="#dw2Wc24nP" opacity="1" fill="#537d28" fill-opacity="1"></use></g><g><use xlink:href="#eBs60GBt1" opacity="1" fill="#b4c34e" fill-opacity="1"></use></g><g><use xlink:href="#avr47TAq0" opacity="1" fill="#b4c34e" fill-opacity="1"></use></g><g><use xlink:href="#aaX0blqSHm" opacity="1" fill="#b4c34e" fill-opacity="1"></use></g><g><use xlink:href="#b2yNoJL7ws" opacity="1" fill="#9bb466" fill-opacity="1"></use></g><g><use xlink:href="#bew9JcYRM" opacity="1" fill="#81a13f" fill-opacity="1"></use></g><g><use xlink:href="#c2G8nPD5g8" opacity="1" fill="#537d28" fill-opacity="1"></use></g><g><use xlink:href="#a269W2L9s" opacity="1" fill="#81a13f" fill-opacity="1"></use></g><g><use xlink:href="#aI7A3RjP3" opacity="1" fill="#81a13f" fill-opacity="1"></use></g><g><use xlink:href="#c82VAyxmC5" opacity="1" fill="#537d28" fill-opacity="1"></use></g><g><use xlink:href="#aRQlokGzv" opacity="1" fill="#81a13f" fill-opacity="1"></use></g><g><use xlink:href="#boICkVvFb" opacity="1" fill="#81a13f" fill-opacity="1"></use></g><g><use xlink:href="#b4OywlEHvI" opacity="1" fill="#81a13f" fill-opacity="1"></use></g></g></svg>