<?xml version="1.0" encoding="UTF-8" standalone="no"?>
<!DOCTYPE svg PUBLIC "-//W3C//DTD SVG 1.1//EN" "http://www.w3.org/Graphics/SVG/1.1/DTD/svg11.dtd">
<svg version="1.1" xmlns="http://www.w3.org/2000/svg" xmlns:xlink="http://www.w3.org/1999/xlink" preserveAspectRatio="xMidYMid meet" viewBox="4.91904932755304 332.0686234281926 494.1056588139803 71.25471630354178" width="490.11" height="67.25"><defs><path d="M419.4 354.4C417.22 352.6 413.1 349.73 407.03 345.81C413.08 346.2 419.11 344.9 425.12 341.89C447.91 331.76 464.38 346.54 477.78 357.45C485.64 363.86 496.69 367.05 495.99 368.11C457.33 393.98 438.09 370.05 419.4 354.4Z" id="h1CI3E5ge8"></path><path d="M62.01 363.07C64.32 363.15 68.42 362.96 74.3 362.48C70.22 365.24 67.01 369.09 64.68 374.03C55.19 391.93 37.13 390.54 23.01 390.13C14.72 389.89 6.01 393.32 5.92 392.28C17.61 356.29 42.09 362.23 62.01 363.07Z" id="a2OdMoXqee"></path><path d="M229.02 337.15C219.71 355.1 208.39 353.17 198.02 351.69C196.68 351.51 195.27 351.46 193.8 351.54C196.28 350.81 198.38 348.69 200.11 345.17C204.71 336.71 211.31 332.82 219.91 333.5L232.88 333.07C231 334.46 229.71 335.82 229.02 337.15Z" id="g68Ab1isF"></path><path d="M346.6 376.63C320.95 407.21 297.54 401.25 276.01 396.31C273.22 395.68 270.25 395.28 267.09 395.11C268.98 391.88 272.34 387.26 277.17 381.25C295.96 359.7 327.8 365.22 344.84 368.87C351.51 370.3 355.28 370.69 356.14 370.06C351.68 372.17 348.5 374.36 346.6 376.63Z" id="ffdRwJisc"></path><path d="M97.69 344.94C119.08 386.53 144.65 381.04 168.06 376.68C171.09 376.14 174.27 375.9 177.61 375.96C172 374.46 167.19 369.63 163.21 361.47C152.65 341.89 137.65 333.26 118.21 335.58L88.87 335.64C93.16 338.76 96.1 341.86 97.69 344.94Z" id="a3XCWNV2ZA"></path></defs><g><g><use xlink:href="#h1CI3E5ge8" opacity="1" fill="#537d28" fill-opacity="1"></use></g><g><use xlink:href="#a2OdMoXqee" opacity="1" fill="#537d28" fill-opacity="1"></use></g><g><use xlink:href="#g68Ab1isF" opacity="1" fill="#81a13f" fill-opacity="1"></use></g><g><use xlink:href="#ffdRwJisc" opacity="1" fill="#81a13f" fill-opacity="1"></use></g><g><use xlink:href="#a3XCWNV2ZA" opacity="1" fill="#9bb466" fill-opacity="1"></use></g></g></svg>