<?xml version="1.0" encoding="UTF-8" standalone="no"?>
<!DOCTYPE svg PUBLIC "-//W3C//DTD SVG 1.1//EN" "http://www.w3.org/Graphics/SVG/1.1/DTD/svg11.dtd">
<svg version="1.1" xmlns="http://www.w3.org/2000/svg" xmlns:xlink="http://www.w3.org/1999/xlink" preserveAspectRatio="xMidYMid meet" viewBox="8.70617216620684 426.53295583316367 479.1185359753264 74.78392103892116" width="475.12" height="70.78"><defs><path d="M134.18 461.83C117.39 495.43 96.31 492.16 77.01 489.7C74.52 489.4 71.9 489.34 69.16 489.53C73.74 488.11 77.59 484.11 80.71 477.53C89.01 461.69 101.16 454.29 117.17 455.32L141.25 454.15C137.78 456.78 135.43 459.34 134.18 461.83Z" id="d1HLGH72p8"></path><path d="M270.48 437.36C267.98 437.95 263.42 438.55 256.82 439.15C262.31 441.88 267.25 446.21 271.64 452.15C288.69 473.43 307.91 467.89 323.2 464.43C332.18 462.39 342.98 465.04 342.69 463.68C316.49 419.36 291.94 432.14 270.48 437.36Z" id="bQLW1Hgun"></path><path d="M176.49 480.18C206.84 455.53 226.85 465.91 245.37 474.94C247.77 476.09 250.39 477.06 253.24 477.85C250.78 480.62 246.66 484.44 240.88 489.33C218.84 506.56 191.05 494.94 176.33 488.05C170.57 485.36 167.22 484.23 166.29 484.68C170.84 483.5 174.24 482 176.49 480.18Z" id="akupbrTKw"></path><path d="M457.02 491.82C450.7 469.73 464.12 461.65 476.15 454.02C477.7 453.03 479.2 451.87 480.66 450.56C481.67 452.54 482.85 455.65 484.18 459.9C488.32 475.78 471.54 487.69 462.17 493.82C458.49 496.22 456.65 497.72 456.64 498.32C457.36 495.62 457.49 493.45 457.02 491.82Z" id="c3VXbxyulC"></path><path d="M418.48 464.52C420.4 464.54 423.76 464.25 428.56 463.64C425.47 466.39 423.22 470.16 421.81 474.95C415.81 492.35 400.77 491.48 389.08 491.45C382.22 491.43 375.39 494.94 375.2 493.95C381.17 459.16 401.97 464.22 418.48 464.52Z" id="c1xjL5r3pP"></path><path d="M16.15 446.31C33.25 421.82 49.46 426.83 64.35 431C66.28 431.53 68.33 431.87 70.51 432.04C66.74 432.63 63.25 435.33 60.03 440.14C51.67 451.64 41.26 456.06 28.79 453.4L9.71 451.53C12.74 449.86 14.89 448.12 16.15 446.31Z" id="cnRO5wNGU"></path></defs><g><g><use xlink:href="#d1HLGH72p8" opacity="1" fill="#81a13f" fill-opacity="1"></use></g><g><use xlink:href="#bQLW1Hgun" opacity="1" fill="#537d28" fill-opacity="1"></use></g><g><use xlink:href="#akupbrTKw" opacity="1" fill="#9bb466" fill-opacity="1"></use></g><g><use xlink:href="#c3VXbxyulC" opacity="1" fill="#81a13f" fill-opacity="1"></use></g><g><use xlink:href="#c1xjL5r3pP" opacity="1" fill="#b4c34e" fill-opacity="1"></use></g><g><use xlink:href="#cnRO5wNGU" opacity="1" fill="#81a13f" fill-opacity="1"></use></g></g></svg>