<?xml version="1.0" encoding="UTF-8" standalone="no"?>
<!DOCTYPE svg PUBLIC "-//W3C//DTD SVG 1.1//EN" "http://www.w3.org/Graphics/SVG/1.1/DTD/svg11.dtd">
<svg version="1.1" xmlns="http://www.w3.org/2000/svg" xmlns:xlink="http://www.w3.org/1999/xlink" preserveAspectRatio="xMidYMid meet" viewBox="279.70093243899476 250.89866219638338 98.50278320143377 68.71378335638406" width="94.5" height="64.71"><defs><path d="M312.35 307.34C323.1 269.16 346.02 269.08 366.89 268.45C369.58 268.35 372.35 267.98 375.2 267.32C370.67 269.58 367.43 274.43 365.5 281.88C360.02 299.95 348.74 309.78 331.64 311.37L306.48 316.61C309.59 313.26 311.55 310.17 312.35 307.34Z" id="a34Y22ysAD"></path><path d="M284.12 288.45C275.8 270.02 284.34 262.33 291.93 255.12C292.9 254.18 293.81 253.11 294.67 251.9C293.7 254.29 294.06 257.26 295.74 260.8C299.53 269.65 298.49 277.24 292.62 283.57L284.92 294.01C285 291.67 284.73 289.82 284.12 288.45Z" id="a5mqW4ehXC"></path></defs><g><g><use xlink:href="#a34Y22ysAD" opacity="1" fill="#537d28" fill-opacity="1"></use></g><g><use xlink:href="#a5mqW4ehXC" opacity="1" fill="#81a13f" fill-opacity="1"></use></g></g></svg>