<?xml version="1.0" encoding="UTF-8" standalone="no"?>
<!DOCTYPE svg PUBLIC "-//W3C//DTD SVG 1.1//EN" "http://www.w3.org/Graphics/SVG/1.1/DTD/svg11.dtd">
<svg version="1.1" xmlns="http://www.w3.org/2000/svg" xmlns:xlink="http://www.w3.org/1999/xlink" preserveAspectRatio="xMidYMid meet" viewBox="80.27679703546951 292.61631240444217 155.60520254504584 114.81811181796286" width="151.61" height="110.82"><defs><path d="M150.88 309.38C152.86 310.63 156.59 312.51 162.07 315.04C156.57 315.56 151.08 317.56 145.59 321.02C124.78 333.05 109.9 322.62 97.8 315.1C90.69 310.68 80.66 309.51 81.31 308.49C116.67 280.58 134 298.52 150.88 309.38Z" id="bteEP3XUL"></path><path d="M229.02 337.15C219.71 355.1 208.39 353.17 198.02 351.69C196.68 351.51 195.27 351.46 193.8 351.54C196.28 350.81 198.38 348.69 200.11 345.17C204.71 336.71 211.31 332.82 219.91 333.5L232.88 333.07C231 334.46 229.71 335.82 229.02 337.15Z" id="b2XjWBV5ML"></path><path d="M116.89 369.74C138.28 411.33 163.85 405.84 187.26 401.48C190.29 400.94 193.47 400.7 196.81 400.76C191.2 399.26 186.39 394.43 182.41 386.27C171.85 366.69 156.85 358.06 137.41 360.38L108.07 360.44C112.36 363.56 115.3 366.66 116.89 369.74Z" id="dmE0TPYGa"></path></defs><g><g><use xlink:href="#bteEP3XUL" opacity="1" fill="#b4c34e" fill-opacity="1"></use></g><g><use xlink:href="#b2XjWBV5ML" opacity="1" fill="#81a13f" fill-opacity="1"></use></g><g><use xlink:href="#dmE0TPYGa" opacity="1" fill="#9bb466" fill-opacity="1"></use></g></g></svg>